<?xml version="1.0" standalone="no"?>
<!DOCTYPE svg PUBLIC "-//W3C//DTD SVG 1.1//EN" "http://www.w3.org/Graphics/SVG/1.1/DTD/svg11.dtd" >
<svg xmlns="http://www.w3.org/2000/svg">
<metadata>Generated by IcoMoon</metadata>
<defs>
<font id="bu-icon" horiz-adv-x="1024">
<font-face units-per-em="1024" ascent="960" descent="-64" />
<missing-glyph horiz-adv-x="1024" />
<glyph unicode="&#x20;" horiz-adv-x="512" d="" />
<glyph unicode="&#xe900;" glyph-name="arrowleft" d="M798.72 908.8l-51.2 51.2-512-512 512-512 51.2 51.2-460.8 460.8z" />
<glyph unicode="&#xe901;" glyph-name="arrowright" d="M235.52-12.8l51.2-51.2 512 512-512 512-51.2-51.2 460.8-460.8z" />
<glyph unicode="&#xe902;" glyph-name="arrowup" d="M0 222.72l51.2-51.2 460.8 458.24 460.8-458.24 51.2 51.2-512 509.44z" />
<glyph unicode="&#xe903;" glyph-name="beautynhealth" d="M599.040 89.6v84.48c176.64 38.4 309.76 199.68 309.76 386.56 0 220.16-176.64 399.36-396.8 399.36s-399.36-179.2-399.36-396.8c0-186.88 128-343.040 302.080-384v-89.6c-51.2-2.56-99.84-10.24-133.12-17.92-35.84-7.68-81.92-23.040-81.92-58.88 0-28.16 30.72-48.64 104.96-64 53.76-10.24 128-15.36 207.36-15.36s151.040 5.12 207.36 15.36c71.68 12.8 104.96 30.72 104.96 64-5.12 43.52-76.8 69.12-225.28 76.8zM463.36 66.56v102.4c15.36-2.56 28.16-2.56 43.52-2.56 12.8 0 25.6 0 38.4 2.56v-99.84c0-12.8 10.24-23.040 23.040-25.6 99.84-5.12 156.16-15.36 184.32-25.6-33.28-12.8-117.76-25.6-245.76-25.6s-212.48 15.36-245.76 25.6c20.48 7.68 71.68 20.48 179.2 25.6 12.8 0 23.040 10.24 23.040 23.040zM163.84 563.2c0 189.44 153.6 345.6 345.6 345.6s348.16-153.6 348.16-345.6-153.6-345.6-345.6-345.6-348.16 153.6-348.16 345.6zM512 865.28c-171.52 0-307.2-135.68-307.2-302.080s135.68-304.64 304.64-304.64 307.2 135.68 307.2 304.64-138.24 302.080-304.64 302.080zM765.44 563.2c0-140.8-115.2-253.44-253.44-253.44s-256 112.64-256 253.44c0 140.8 115.2 253.44 253.44 253.44s256-112.64 256-253.44zM522.24 673.28c10.24 10.24 10.24 25.6 0 35.84s-25.6 10.24-35.84 0l-138.24-133.12c-10.24-10.24-10.24-25.6 0-35.84 5.12-5.12 10.24-7.68 17.92-7.68s12.8 2.56 17.92 7.68l138.24 133.12zM634.88 714.24c-7.68 0-12.8-2.56-17.92-7.68l-230.4-230.4c-5.12-5.12-7.68-10.24-7.68-17.92s2.56-12.8 7.68-17.92c5.12-5.12 10.24-7.68 17.92-7.68s12.8 2.56 17.92 7.68l230.4 230.4c5.12 5.12 7.68 10.24 7.68 17.92s-2.56 12.8-7.68 17.92c-5.12 5.12-12.8 7.68-17.92 7.68z" />
<glyph unicode="&#xe904;" glyph-name="busreizen" d="M691.2 261.12h-343.040v-2.56c0-7.68 2.56-12.8 2.56-20.48 0-5.12 0-12.8-2.56-20.48v-2.56h343.040v2.56c0 7.68-2.56 12.8-2.56 20.48s0 12.8 2.56 20.48v2.56zM998.4 314.88v232.96c0 12.8 2.56 74.24-38.4 120.32-28.16 30.72-66.56 46.080-117.76 46.080h-581.12c-71.68 0-199.68-43.52-225.28-204.8v-2.56c-2.56-17.92-7.68-104.96-7.68-189.44-17.92-10.24-28.16-30.72-28.16-48.64 0-30.72 23.040-53.76 53.76-53.76h94.72c10.24-38.4 46.080-64 84.48-64 48.64 0 89.6 40.96 89.6 89.6s-40.96 89.6-89.6 89.6c-40.96 0-74.24-25.6-84.48-64h-94.72c-2.56 0-5.12 2.56-5.12 7.68s2.56 7.68 5.12 7.68h43.52c12.8 0 23.040 10.24 23.040 23.040s-10.24 23.040-23.040 23.040h-20.48c0 20.48 0 43.52 0 69.12 46.080 76.8 151.040 87.040 156.16 87.040h640c12.8 0 23.040 10.24 23.040 23.040 0 0 0 2.56 0 2.56s0 2.56 0 2.56v48.64c0 30.72-7.68 53.76-25.6 69.12-15.36 15.36-33.28 17.92-43.52 20.48-2.56 0-5.12 0-7.68 0h-632.32c35.84 15.36 69.12 17.92 74.24 17.92h578.56c35.84 0 64-10.24 84.48-30.72 30.72-33.28 25.6-84.48 25.6-84.48v-227.84h-23.040c-12.8 0-23.040-10.24-23.040-23.040s10.24-23.040 23.040-23.040h43.52c2.56 0 5.12-2.56 5.12-7.68s-2.56-7.68-5.12-7.68h-79.36c-10.24 38.4-46.080 64-84.48 64-48.64 0-89.6-40.96-89.6-89.6s40.96-89.6 89.6-89.6c40.96 0 74.24 25.6 84.48 64h81.92c2.56 0 2.56 0 5.12 0 25.6 5.12 46.080 25.6 46.080 53.76 0 20.48-10.24 38.4-25.6 48.64zM312.32 601.6v-76.8h-81.92c-2.56 0-87.040-5.12-151.040-58.88 0 17.92 2.56 28.16 2.56 33.28 7.68 40.96 20.48 74.24 43.52 99.84h186.88zM360.96 524.8v76.8h89.6v-76.8h-89.6zM496.64 524.8v76.8h89.6v-76.8h-89.6zM634.88 524.8v76.8h89.6v-76.8h-89.6zM773.12 524.8v76.8h46.080c2.56 0 5.12 0 5.12 0 5.12 0 25.6-2.56 25.6-40.96v-35.84h-76.8zM192 238.080c0 23.040 17.92 40.96 40.96 40.96s40.96-17.92 40.96-40.96-17.92-40.96-40.96-40.96c-23.040 0-40.96 17.92-40.96 40.96zM847.36 238.080c0-23.040-17.92-40.96-40.96-40.96s-40.96 17.92-40.96 40.96 17.92 40.96 40.96 40.96c20.48 0 40.96-20.48 40.96-40.96z" />
<glyph unicode="&#xe905;" glyph-name="cadeau" d="M942.080 596.48c-2.56 46.080-40.96 84.48-87.040 84.48h-53.76c12.8 7.68 23.040 12.8 28.16 20.48 30.72 28.16 46.080 64 46.080 104.96 0 43.52-15.36 79.36-43.52 107.52-28.16 30.72-66.56 46.080-107.52 46.080-38.4 0-74.24-15.36-104.96-43.52-38.4-35.84-76.8-151.040-97.28-217.6-23.040 71.68-61.44 184.32-97.28 217.6-28.16 28.16-66.56 43.52-104.96 43.52-40.96 0-81.92-17.92-107.52-46.080-28.16-30.72-43.52-69.12-43.52-107.52 0-40.96 15.36-79.36 46.080-104.96 7.68-7.68 15.36-12.8 28.16-20.48h-53.76c-48.64 0-84.48-35.84-84.48-84.48v-197.12c0-15.36 12.8-30.72 30.72-30.72h43.52c0-2.56 0-5.12 0-7.68v-353.28c0-38.4 33.28-71.68 74.24-71.68h540.16c40.96 0 74.24 33.28 74.24 74.24v353.28c0 2.56 0 5.12 0 7.68h43.52c15.36 0 30.72 12.8 30.72 30.72v194.56zM624.64 396.8c0-15.36 12.8-30.72 30.72-30.72h156.16c0-2.56 0-5.12 0-7.68v-350.72c0-10.24-7.68-17.92-17.92-17.92h-540.16c-10.24 0-17.92 7.68-17.92 17.92v355.84c0 2.56 0 5.12 0 7.68h128c15.36 0 30.72 12.8 30.72 30.72 0 15.36-12.8 30.72-30.72 30.72h-199.68v168.96c0 15.36 12.8 28.16 28.16 28.16h204.8c30.72-10.24 58.88-15.36 79.36-20.48 5.12 0 7.68-2.56 12.8-2.56-2.56-64-25.6-245.76-168.96-281.6-15.36-2.56-23.040-17.92-20.48-35.84 2.56-12.8 15.36-20.48 28.16-20.48h7.68c110.080 28.16 163.84 115.2 186.88 194.56 12.8-97.28 40.96-238.080 110.080-304.64 25.6-25.6 58.88-40.96 94.72-40.96h2.56c7.68 0 17.92 2.56 23.040 10.24 5.12 5.12 7.68 12.8 5.12 20.48 0 7.68-2.56 17.92-10.24 23.040-5.12 5.12-12.8 7.68-20.48 5.12-23.040 0-40.96 7.68-58.88 23.040-92.16 89.6-99.84 366.080-102.4 407.040 17.92 5.12 38.4 10.24 61.44 17.92l28.16 7.68h199.68c15.36 0 28.16-12.8 28.16-28.16v-171.52h-225.28c-20.48-7.68-33.28-20.48-33.28-35.84zM570.88 657.92c28.16 92.16 66.56 192 89.6 215.040 17.92 17.92 40.96 25.6 66.56 25.6s48.64-10.24 69.12-28.16c17.92-17.92 25.6-40.96 25.6-66.56s-10.24-48.64-28.16-66.56c-28.16-20.48-135.68-56.32-222.72-79.36zM473.6 657.92c-92.16 25.6-194.56 61.44-220.16 84.48-15.36 12.8-25.6 38.4-28.16 64 0 23.040 10.24 48.64 28.16 66.56 15.36 17.92 40.96 28.16 69.12 28.16 25.6 0 48.64-10.24 66.56-25.6 17.92-20.48 48.64-99.84 84.48-217.6z" />
<glyph unicode="&#xe906;" glyph-name="callcenter" d="M936.96 532.48h-15.36v53.76c-2.56 176.64-171.52 373.76-401.92 373.76s-399.36-197.12-399.36-373.76v-53.76h-38.4c-40.96 0-74.24-35.84-74.24-79.36v-125.44c0-43.52 33.28-79.36 74.24-79.36h97.28v337.92c0 145.92 148.48 317.44 340.48 317.44s343.040-168.96 343.040-314.88v-179.2h56.32v66.56h15.36c7.68 0 15.36-10.24 15.36-20.48v-125.44c0-10.24-7.68-20.48-15.36-20.48h-15.36v46.080h-56.32v-76.8c0-125.44-97.28-225.28-217.6-235.52-10.24 25.6-38.4 43.52-66.56 43.52h-66.56c-40.96 0-74.24-33.28-74.24-74.24s33.28-74.24 74.24-74.24h66.56c30.72 0 56.32 17.92 69.12 46.080 145.92 10.24 261.12 125.44 273.92 268.8h17.92c40.96 0 74.24 35.84 74.24 79.36v125.44c-2.56 38.4-35.84 74.24-76.8 74.24zM66.56 453.12c0 12.8 7.68 20.48 15.36 20.48h38.4v-166.4h-38.4c-7.68 0-15.36 10.24-15.36 20.48v125.44zM593.92 10.24c0-7.68-7.68-15.36-15.36-15.36h-66.56c-7.68 0-15.36 7.68-15.36 15.36s7.68 15.36 15.36 15.36h66.56c7.68 0 15.36-7.68 15.36-15.36zM432.64 102.4c-107.52 48.64-163.84 161.28-163.84 243.2v89.6c0 74.24 66.56 176.64 122.88 212.48 43.52-61.44 107.52-112.64 140.8-138.24 79.36-56.32 166.4-97.28 238.080-115.2v-48.64c0-69.12-35.84-166.4-99.84-215.040l-5.12-2.56 35.84-46.080 5.12 2.56c79.36 61.44 122.88 176.64 122.88 261.12v40.96c5.12 0 10.24 0 15.36 0h5.12v56.32h-5.12c-179.2 0-442.88 217.6-442.88 330.24v7.68h-56.32v-5.12c0-25.6 7.68-51.2 17.92-74.24-71.68-46.080-153.6-166.4-153.6-261.12v-94.72c0-102.4 69.12-238.080 199.68-296.96l5.12-2.56 23.040 53.76-5.12 2.56z" />
<glyph unicode="&#xe907;" glyph-name="cross" d="M1024 903.68l-56.32 56.32-455.68-455.68-455.68 455.68-56.32-56.32 455.68-455.68-455.68-455.68 56.32-56.32 455.68 455.68 455.68-455.68 56.32 56.32-455.68 455.68z" />
<glyph unicode="&#xe908;" glyph-name="cruises" d="M232.96 194.56c2.56-12.8 12.8-20.48 25.6-20.48 2.56 0 2.56 0 5.12 0 12.8 2.56 23.040 15.36 20.48 30.72l-58.88 273.92 286.72 53.76 284.16-53.76-53.76-268.8c-2.56-12.8 5.12-28.16 20.48-30.72 12.8-2.56 28.16 5.12 30.72 20.48l61.44 294.4c2.56 7.68 0 12.8-2.56 17.92s-10.24 10.24-15.36 10.24l-51.2 10.24v266.24c0 12.8-10.24 25.6-25.6 25.6h-130.56v76.8c0 12.8-10.24 25.6-25.6 25.6h-181.76c-12.8 0-25.6-10.24-25.6-25.6v-74.24h-130.56c-12.8 0-25.6-10.24-25.6-25.6v-266.24l-51.2-10.24c-7.68 0-12.8-5.12-15.36-10.24s-5.12-12.8-2.56-20.48l61.44-299.52zM448 824.32v51.2h130.56v-51.2h-130.56zM291.84 542.72v230.4h440.32v-230.4l-212.48 40.96c-2.56 0-5.12 0-10.24 0l-217.6-40.96zM468.48 737.28h-125.44c-12.8 0-25.6-10.24-25.6-25.6v-81.92c0-12.8 10.24-25.6 25.6-25.6h125.44c12.8 0 25.6 10.24 25.6 25.6v81.92c0 15.36-12.8 25.6-25.6 25.6zM368.64 657.92v30.72h74.24v-30.72h-74.24zM555.52 606.72h125.44c12.8 0 25.6 10.24 25.6 25.6v79.36c0 12.8-10.24 25.6-25.6 25.6h-125.44c-12.8 0-25.6-10.24-25.6-25.6v-81.92c0-12.8 12.8-23.040 25.6-23.040zM581.12 657.92v30.72h74.24v-30.72h-74.24zM12.8 112.64c28.16-17.92 97.28-38.4 161.28 0 20.48-17.92 43.52-28.16 71.68-30.72 5.12 0 10.24 0 17.92 0 33.28 0 66.56 10.24 99.84 33.28 51.2-35.84 112.64-35.84 168.96 0 23.040-17.92 48.64-28.16 76.8-28.16 0 0 0 0 2.56 0 25.6 0 51.2 10.24 76.8 25.6 40.96-28.16 104.96-38.4 161.28 2.56 89.6-48.64 163.84 2.56 166.4 5.12 10.24 7.68 12.8 23.040 5.12 35.84-7.68 10.24-23.040 12.8-35.84 5.12 0 0-58.88-40.96-125.44 5.12-10.24 7.68-23.040 5.12-30.72-2.56-43.52-40.96-94.72-30.72-122.88 0-5.12 5.12-10.24 7.68-17.92 7.68s-12.8-2.56-17.92-7.68c-17.92-17.92-38.4-28.16-58.88-28.16 0 0 0 0 0 0-20.48 0-40.96 10.24-56.32 28.16-7.68 10.24-23.040 10.24-33.28 2.56-61.44-46.080-110.080-25.6-140.8 0-10.24 7.68-23.040 7.68-33.28 0-38.4-33.28-74.24-35.84-94.72-33.28-23.040 2.56-40.96 12.8-53.76 28.16-7.68 5.12-12.8 7.68-20.48 10.24-7.68 0-12.8 0-17.92-5.12-56.32-46.080-120.32-10.24-122.88-7.68-12.8 7.68-28.16 2.56-35.84-7.68-2.56-7.68-2.56-15.36-2.56-23.040 2.56-5.12 5.12-10.24 12.8-15.36zM983.040 66.56c-2.56-2.56-58.88-40.96-125.44 5.12-10.24 7.68-23.040 5.12-30.72-2.56-43.52-40.96-94.72-30.72-122.88 0-5.12 5.12-10.24 7.68-17.92 7.68s-12.8-2.56-17.92-7.68c-17.92-17.92-38.4-28.16-58.88-28.16s-40.96 10.24-56.32 28.16c-7.68 10.24-23.040 10.24-33.28 2.56-61.44-46.080-110.080-25.6-140.8 0-10.24 7.68-23.040 7.68-33.28 0-38.4-33.28-71.68-35.84-94.72-33.28s-40.96 12.8-53.76 28.16c-5.12 5.12-10.24 10.24-17.92 10.24s-12.8 0-17.92-5.12c-58.88-46.080-120.32-10.24-122.88-7.68-12.8 7.68-28.16 2.56-35.84-7.68-7.68-12.8-2.56-28.16 7.68-35.84 28.16-17.92 97.28-38.4 161.28 0 20.48-17.92 43.52-28.16 71.68-30.72 5.12 0 10.24 0 17.92 0 33.28 0 66.56 10.24 99.84 33.28 51.2-35.84 112.64-35.84 168.96 0 23.040-17.92 48.64-28.16 76.8-28.16 25.6 0 53.76 7.68 76.8 25.6 40.96-28.16 104.96-38.4 161.28 2.56 89.6-48.64 163.84 2.56 166.4 5.12 10.24 7.68 12.8 23.040 5.12 35.84-5.12 7.68-20.48 10.24-33.28 2.56z" />
<glyph unicode="&#xe909;" glyph-name="cultuur" d="M271.36 46.080c-2.56 0-2.56 0 0 0-15.36 0-25.6 12.8-25.6 25.6 0 2.56 2.56 197.12 2.56 350.72s0 238.080-33.28 294.4c-46.080 69.12-84.48 71.68-115.2 66.56-15.36-2.56-28.16-12.8-35.84-25.6s-12.8-28.16-10.24-43.52c5.12-23.040 25.6-35.84 48.64-33.28 5.12 0 12.8 7.68 15.36 12.8 0 0 0 0 0 0-10.24 12.8-10.24 28.16 2.56 38.4 10.24 10.24 28.16 7.68 38.4-2.56 12.8-15.36 15.36-33.28 10.24-51.2-7.68-23.040-30.72-40.96-53.76-46.080-51.2-10.24-99.84 23.040-110.080 74.24-5.12 28.16 0 58.88 17.92 84.48 15.36 25.6 40.96 40.96 71.68 46.080 61.44 10.24 115.2-20.48 161.28-94.72 43.52-69.12 43.52-158.72 40.96-320 0-153.6-2.56-348.16-2.56-350.72 2.56-15.36-10.24-25.6-23.040-25.6zM752.64 46.080c-15.36 0-25.6 12.8-25.6 25.6 0 2.56-2.56 197.12-2.56 350.72 0 163.84 0 253.44 40.96 320 46.080 74.24 99.84 102.4 166.4 89.6 28.16-5.12 53.76-23.040 71.68-46.080 15.36-25.6 23.040-53.76 17.92-84.48-10.24-51.2-58.88-84.48-110.080-74.24-23.040 5.12-46.080 23.040-53.76 46.080-7.68 17.92-2.56 38.4 10.24 51.2 10.24 10.24 25.6 12.8 38.4 2.56 10.24-10.24 12.8-25.6 2.56-38.4 0 0 0 0 0 0 0-2.56 7.68-10.24 15.36-10.24 23.040-5.12 43.52 10.24 48.64 33.28 2.56 15.36 0 30.72-7.68 43.52s-23.040 20.48-35.84 25.6c-30.72 5.12-69.12 2.56-112.64-66.56-33.28-56.32-33.28-140.8-33.28-291.84 0-153.6 2.56-348.16 2.56-350.72-5.12-15.36-17.92-25.6-33.28-25.6 2.56 0 2.56 0 0 0zM396.8 46.080c-15.36 0-25.6 12.8-25.6 25.6v596.48c0 15.36 12.8 25.6 25.6 25.6 15.36 0 25.6-12.8 25.6-25.6v-596.48c0-15.36-10.24-25.6-25.6-25.6zM517.12 46.080c-15.36 0-25.6 12.8-25.6 25.6v596.48c0 15.36 12.8 25.6 25.6 25.6 15.36 0 25.6-12.8 25.6-25.6v-596.48c0-15.36-10.24-25.6-25.6-25.6zM637.44 46.080c-15.36 0-25.6 12.8-25.6 25.6v596.48c0 15.36 12.8 25.6 25.6 25.6 15.36 0 25.6-12.8 25.6-25.6v-596.48c2.56-15.36-10.24-25.6-25.6-25.6zM762.88 655.36h-483.84c-15.36 0-25.6 12.8-25.6 25.6 0 15.36 12.8 25.6 25.6 25.6h483.84c15.36 0 25.6-12.8 25.6-25.6s-12.8-25.6-25.6-25.6zM890.88 783.36h-750.080c-15.36 0-25.6 12.8-25.6 25.6 0 15.36 12.8 25.6 25.6 25.6h752.64c15.36 0 25.6-12.8 25.6-25.6s-12.8-25.6-28.16-25.6z" />
<glyph unicode="&#xe90a;" glyph-name="dagdeal" d="M675.84 38.4h-117.76c2.56 5.12 7.68 10.24 10.24 15.36 7.68 10.24 23.040 23.040 46.080 43.52 23.040 17.92 38.4 30.72 48.64 40.96 10.24 7.68 17.92 20.48 28.16 35.84s12.8 30.72 12.8 53.76c0 12.8-2.56 23.040-7.68 33.28s-10.24 20.48-17.92 28.16-17.92 15.36-28.16 20.48c-15.36 7.68-35.84 10.24-61.44 10.24-17.92 0-35.84-2.56-48.64-7.68-15.36-5.12-25.6-12.8-35.84-23.040s-15.36-17.92-20.48-30.72c-5.12-10.24-7.68-23.040-7.68-33.28 0-7.68 2.56-15.36 7.68-20.48s10.24-7.68 17.92-7.68c7.68 0 15.36 2.56 20.48 7.68s7.68 12.8 12.8 23.040c2.56 10.24 5.12 15.36 7.68 17.92 10.24 17.92 25.6 25.6 46.080 25.6 10.24 0 17.92-2.56 25.6-5.12 7.68-5.12 12.8-10.24 17.92-17.92s7.68-15.36 7.68-25.6c0-7.68-2.56-17.92-5.12-28.16-5.12-10.24-10.24-17.92-17.92-25.6s-17.92-17.92-30.72-25.6c-7.68-5.12-17.92-15.36-33.28-28.16-15.36-15.36-33.28-33.28-56.32-56.32-5.12-5.12-10.24-12.8-12.8-20.48-5.12-7.68-5.12-15.36-5.12-20.48 0-7.68 2.56-15.36 10.24-23.040 5.12-5.12 15.36-10.24 25.6-10.24h168.96c10.24 0 17.92 2.56 23.040 7.68s7.68 10.24 7.68 17.92-2.56 15.36-10.24 20.48c-7.68 5.12-15.36 7.68-28.16 7.68zM962.56 99.84c-7.68 2.56-15.36 5.12-28.16 5.12h-12.8v179.2c0 25.6-10.24 38.4-33.28 38.4-7.68 0-12.8-2.56-17.92-7.68s-10.24-12.8-17.92-23.040l-120.32-163.84c-2.56-5.12-5.12-7.68-7.68-10.24s-5.12-5.12-7.68-10.24c-2.56-2.56-2.56-5.12-5.12-10.24 0-2.56-2.56-5.12-2.56-7.68 0-10.24 2.56-20.48 10.24-25.6 7.68-7.68 17.92-10.24 30.72-10.24h115.2v-40.96c0-10.24 2.56-20.48 7.68-25.6s12.8-7.68 20.48-7.68 15.36 2.56 20.48 7.68c5.12 5.12 7.68 15.36 7.68 25.6v40.96h12.8c10.24 0 20.48 2.56 25.6 5.12 5.12 5.12 7.68 10.24 7.68 17.92 5.12 15.36 2.56 20.48-5.12 23.040zM865.28 104.96h-97.28l97.28 133.12v-133.12zM545.28 450.56c0 7.68-2.56 15.36-5.12 23.040l199.68 199.68c10.24 10.24 10.24 28.16 0 38.4s-28.16 10.24-38.4 0l-194.56-194.56c-10.24 5.12-23.040 10.24-35.84 10.24-20.48 0-38.4-7.68-53.76-20.48l-138.24 81.92c-12.8 7.68-30.72 2.56-38.4-10.24-10.24-12.8-5.12-30.72 7.68-38.4l140.8-81.92c0-2.56 0-5.12 0-5.12 0-40.96 33.28-79.36 79.36-79.36 43.52-2.56 76.8 33.28 76.8 76.8zM468.48 430.080c-10.24 0-20.48 10.24-20.48 20.48 2.56 2.56 2.56 2.56 2.56 5.12 2.56 2.56 2.56 7.68 2.56 10.24 2.56 2.56 7.68 5.12 12.8 5.12 10.24 0 20.48-10.24 20.48-20.48 5.12-10.24-5.12-20.48-17.92-20.48zM496.64 755.2v30.72c0 15.36-12.8 28.16-28.16 28.16s-28.16-12.8-28.16-28.16v-30.72c0-15.36 12.8-28.16 28.16-28.16s28.16 12.8 28.16 28.16zM133.12 478.72c-15.36 0-28.16-12.8-28.16-28.16s12.8-28.16 28.16-28.16h30.72c15.36 0 28.16 12.8 28.16 28.16s-12.8 28.16-28.16 28.16h-30.72zM1008.64 591.36c-12.8 7.68-30.72 0-35.84-12.8l-33.28-74.24c-25.6 232.96-225.28 414.72-468.48 414.72-261.12 2.56-471.040-209.92-471.040-468.48 0-212.48 143.36-401.92 353.28-455.68 2.56 0 5.12 0 7.68 0 12.8 0 23.040 7.68 25.6 20.48 5.12 15.36-5.12 30.72-20.48 33.28-181.76 48.64-309.76 215.040-309.76 401.92 0 227.84 184.32 412.16 412.16 412.16 209.92 0 384-156.16 409.6-355.84l-43.52 58.88c-10.24 12.8-25.6 15.36-38.4 5.12s-12.8-28.16-5.12-38.4l110.080-138.24c5.12-7.68 12.8-10.24 20.48-10.24v0c10.24 0 17.92 7.68 23.040 15.36l76.8 161.28c5.12 7.68 0 25.6-12.8 30.72z" />
<glyph unicode="&#xe90b;" glyph-name="dagjeuit" d="M765.44 614.4c-53.76 20.48-115.2 15.36-168.96-15.36s-94.72-79.36-117.76-143.36c-46.080-120.32 25.6-302.080 92.16-337.92 0-10.24-2.56-25.6-5.12-38.4-2.56-7.68-5.12-10.24-20.48-15.36-12.8-5.12-30.72-15.36-38.4-35.84s0-40.96 7.68-58.88c2.56-10.24 7.68-20.48 7.68-30.72v-2.56l48.64 2.56v2.56c0 17.92-5.12 30.72-10.24 46.080-2.56 7.68-7.68 20.48-7.68 25.6 2.56 2.56 10.24 5.12 12.8 5.12 15.36 7.68 38.4 17.92 46.080 48.64 5.12 15.36 5.12 30.72 7.68 43.52 48.64 5.12 102.4 33.28 117.76 43.52 66.56 40.96 117.76 97.28 140.8 153.6 48.64 130.56 0 266.24-112.64 307.2zM832 325.12c-17.92-46.080-61.44-94.72-117.76-128-51.2-30.72-99.84-40.96-115.2-35.84-38.4 15.36-112.64 168.96-71.68 279.040 17.92 51.2 53.76 92.16 94.72 115.2 25.6 12.8 51.2 20.48 76.8 20.48 17.92 0 33.28-2.56 48.64-7.68 84.48-30.72 122.88-140.8 84.48-243.2zM327.68 742.4c12.8 97.28 79.36 166.4 161.28 166.4 89.6 0 163.84-89.6 163.84-199.68 0-17.92-2.56-35.84-10.24-56.32v-2.56l48.64-15.36v2.56c7.68 25.6 10.24 48.64 10.24 69.12 0 138.24-94.72 248.32-212.48 248.32-107.52 0-194.56-89.6-209.92-209.92v-2.56l48.64-5.12v5.12zM432.64 286.72c-17.92-25.6-35.84-35.84-43.52-38.4-17.92-5.12-64 12.8-112.64 48.64-53.76 40.96-92.16 92.16-104.96 140.8-25.6 104.96 23.040 209.92 110.080 232.96 79.36 20.48 166.4-35.84 199.68-130.56v-2.56l46.080 15.36v2.56c-40.96 117.76-153.6 189.44-258.56 161.28-110.080-25.6-174.080-156.16-140.8-289.28 15.36-58.88 58.88-120.32 122.88-168.96 25.6-20.48 61.44-40.96 94.72-51.2-12.8-20.48-23.040-43.52-23.040-61.44 0-28.16 25.6-46.080 43.52-61.44 5.12-2.56 10.24-7.68 15.36-12.8-2.56-12.8-23.040-43.52-30.72-53.76-2.56-5.12-5.12-10.24-7.68-12.8l-2.56-2.56 40.96-25.6 2.56 2.56c2.56 2.56 5.12 7.68 7.68 10.24v2.56c23.040 35.84 40.96 64 38.4 87.040-2.56 20.48-17.92 33.28-35.84 46.080-20.48 15.36-23.040 20.48-23.040 20.48 0 10.24 12.8 33.28 28.16 56.32 0 0 2.56 0 2.56 0 28.16 7.68 53.76 35.84 69.12 56.32l2.56 2.56-40.96 25.6zM317.44 599.040h2.56l-12.8 48.64h-2.56c-76.8-20.48-122.88-104.96-99.84-194.56v-2.56l48.64 12.8v2.56c-15.36 61.44 15.36 120.32 64 133.12zM691.2 540.16c-79.36 0-143.36-74.24-140.8-166.4v-2.56h48.64v2.56c0 64 40.96 115.2 92.16 117.76h2.56v48.64h-2.56zM355.84 747.52v-2.56l48.64-10.24v2.56c7.68 43.52 35.84 76.8 74.24 87.040h2.56l-10.24 48.64h-2.56c-56.32-12.8-99.84-61.44-112.64-125.44z" />
<glyph unicode="&#xe90c;" glyph-name="elektronica" d="M824.32 960h-606.72c-40.96 0-76.8-33.28-76.8-76.8v-870.4c0-40.96 33.28-76.8 76.8-76.8h606.72c40.96 0 76.8 33.28 76.8 76.8v870.4c-2.56 43.52-35.84 76.8-76.8 76.8zM849.92 12.8c0-12.8-10.24-25.6-25.6-25.6h-606.72c-12.8 0-25.6 10.24-25.6 25.6v870.4c0 12.8 10.24 25.6 25.6 25.6h606.72c12.8 0 25.6-10.24 25.6-25.6v-870.4zM750.080 847.36h-455.68c-23.040 0-38.4-20.48-38.4-38.4v-606.72c0-23.040 20.48-38.4 38.4-38.4h453.12c23.040 0 38.4 20.48 40.96 40.96v606.72c0 23.040-20.48 35.84-38.4 35.84zM734.72 215.040h-430.080v583.68h430.080v-583.68zM563.2 99.84h-87.040c-15.36 0-25.6-10.24-25.6-25.6s10.24-25.6 25.6-25.6h87.040c15.36 0 25.6 12.8 25.6 25.6 0 15.36-10.24 25.6-25.6 25.6z" />
<glyph unicode="&#xe90d;" glyph-name="envelope" d="M980.48 775.68c-10.24 5.12-23.040 7.68-35.84 7.68h-865.28c-12.8 0-23.040-2.56-35.84-7.68-25.6-12.8-43.52-40.96-43.52-71.68v-519.68c0-43.52 35.84-79.36 79.36-79.36h865.28c43.52 0 79.36 35.84 79.36 79.36v519.68c0 30.72-17.92 58.88-43.52 71.68zM58.88 670.72l263.68-227.84-263.68-225.28v453.12zM84.48 724.48h855.040l-409.6-355.84c-5.12-2.56-10.24-5.12-17.92-5.12s-12.8 2.56-17.92 5.12l-409.6 355.84zM366.080 404.48l92.16-79.36c15.36-12.8 33.28-20.48 53.76-20.48s40.96 7.68 53.76 20.48l92.16 79.36 279.040-240.64h-852.48l281.6 240.64zM704 442.88l263.68 227.84v-453.12l-263.68 225.28z" />
<glyph unicode="&#xe90e;" glyph-name="erotiek" d="M1021.44 527.36c2.56 7.68 2.56 17.92 2.56 25.6l-23.040 99.84c-5.12 23.040-23.040 38.4-48.64 38.4h-317.44c0 5.12-2.56 7.68-2.56 12.8l-2.56 7.68c-5.12 15.36-20.48 23.040-38.4 23.040-5.12 0-10.24 0-15.36-2.56l-28.16-12.8c-2.56 0-7.68 2.56-10.24 2.56h-35.84c-5.12 0-10.24 0-12.8-2.56l-35.84 15.36c-5.12 2.56-10.24 2.56-15.36 2.56-15.36 0-30.72-10.24-38.4-23.040l-2.56-7.68c-2.56-5.12-2.56-7.68-2.56-12.8h-322.56c-23.040 0-43.52-15.36-48.64-40.96l-20.48-99.84c-2.56-7.68-2.56-17.92 2.56-25.6h-5.12l5.12-2.56c2.56-2.56 2.56-7.68 5.12-10.24 7.68-10.24 20.48-17.92 35.84-20.48 51.2-5.12 145.92-23.040 227.84-94.72 38.4-30.72 66.56-69.12 87.040-112.64 28.16-58.88 89.6-94.72 156.16-94.72h2.56c64 0 125.44 38.4 156.16 92.16 23.040 46.080 56.32 81.92 89.6 112.64 74.24 61.44 166.4 87.040 217.6 97.28 12.8 2.56 23.040 10.24 28.16 20.48v0 7.68l10.24 5.12zM721.92 453.12c64 48.64 138.24 61.44 194.56 61.44-51.2-15.36-117.76-46.080-168.96-89.6v0c-40.96-30.72-74.24-74.24-99.84-125.44 0 0 0 0 0-2.56-7.68 46.080 7.68 107.52 74.24 156.16zM696.32 486.4c-107.52-79.36-94.72-192-89.6-225.28-23.040-17.92-53.76-28.16-84.48-28.16h-2.56c-28.16 0-56.32 7.68-79.36 23.040 7.68 38.4 17.92 138.24-58.88 209.92-117.76 112.64-281.6 94.72-337.92 87.040l20.48 94.72c0 5.12 5.12 7.68 10.24 7.68h330.24c0 0 0 0 0-2.56l-20.48-51.2c-2.56-7.68 0-15.36 5.12-20.48s12.8-7.68 20.48-5.12l87.040 30.72c5.12-2.56 7.68-2.56 12.8-2.56h15.36c2.56 0 7.68 0 10.24 2.56l76.8-28.16c2.56 0 5.12 0 7.68 0 10.24 0 17.92 7.68 17.92 17.92 0 2.56 0 5.12 0 5.12l-10.24 48.64v2.56h325.12c5.12 0 7.68-2.56 10.24-7.68l20.48-94.72c-51.2 10.24-176.64 17.92-286.72-64zM353.28 435.2c48.64-46.080 53.76-107.52 51.2-145.92-2.56 5.12-5.12 7.68-7.68 12.8-23.040 48.64-58.88 89.6-97.28 125.44-58.88 51.2-122.88 76.8-176.64 92.16 69.12 0 158.72-15.36 230.4-84.48zM432.64 629.76l2.56 2.56 35.84 15.36v-5.12l-38.4-12.8zM463.36 688.64l-12.8-5.12-17.92 7.68c0 0 0 0-2.56 0 0 0 0 0 0 2.56l2.56 7.68c0 0 2.56 2.56 2.56 0l28.16-12.8zM524.8 645.12h-12.8l-7.68 40.96h28.16l-7.68-40.96zM570.88 693.76l17.92 7.68h2.56c0 0 0 0 2.56 0l2.56-7.68c0 0 0 0 0-2.56 0 0 0 0-2.56 0l-25.6-10.24v2.56c2.56 2.56 2.56 5.12 2.56 10.24zM593.92 629.76l-23.040 7.68 7.68 2.56 12.8-5.12 2.56-5.12z" />
<glyph unicode="&#xe90f;" glyph-name="facebook" d="M437.76 253.44c0 58.88 0 120.32 0 179.2 0 10.24-2.56 12.8-12.8 12.8-17.92 0-38.4 0-56.32 0-7.68 0-10.24 2.56-10.24 10.24 0 38.4 0 74.24 0 112.64 0 7.68 2.56 10.24 10.24 10.24 17.92 0 38.4 0 56.32 0 10.24 0 12.8 2.56 12.8 12.8 0 28.16 0 56.32 0 84.48 0 35.84 10.24 66.56 30.72 94.72 25.6 35.84 64 51.2 107.52 53.76s89.6 0 133.12 2.56c5.12 0 7.68-2.56 7.68-7.68 0-38.4 0-76.8 0-112.64 0-7.68-2.56-7.68-7.68-7.68-20.48 0-43.52 0-64 0-28.16 0-46.080-15.36-46.080-43.52-2.56-23.040 0-46.080 0-66.56 0-7.68 5.12-7.68 10.24-7.68 33.28 0 64 0 97.28 0 10.24 0 12.8-2.56 12.8-12.8-5.12-38.4-7.68-74.24-10.24-112.64 0-7.68-5.12-10.24-12.8-10.24-25.6 0-51.2 0-76.8 0-17.92 0-15.36 2.56-15.36-15.36 0-117.76 0-235.52 0-353.28 0-12.8-2.56-15.36-15.36-15.36-43.52 0-87.040 0-130.56 0-12.8 0-15.36 5.12-15.36 15.36-5.12 58.88-5.12 117.76-5.12 176.64z" />
<glyph unicode="&#xe910;" glyph-name="familie" d="M302.080 529.92c79.36 0 140.8 92.16 140.8 212.48 0 104.96-51.2 166.4-140.8 166.4s-140.8-61.44-140.8-166.4c0-117.76 61.44-212.48 140.8-212.48zM302.080 852.48c56.32 0 84.48-35.84 84.48-110.080 0-94.72-43.52-156.16-84.48-156.16s-84.48 64-84.48 156.16c0 74.24 28.16 110.080 84.48 110.080zM30.72 110.080h192c15.36 0 28.16 12.8 28.16 28.16s-12.8 28.16-28.16 28.16h-33.28c-2.56 0-5.12 2.56-5.12 5.12v97.28c0 15.36-12.8 28.16-28.16 28.16s-25.6-12.8-25.6-28.16v-97.28c0-2.56-2.56-5.12-5.12-5.12h-64c-2.56 0-5.12 2.56-5.12 5.12-2.56 71.68 2.56 199.68 33.28 232.96 2.56 2.56 5.12 5.12 7.68 5.12h15.36c33.28 0 69.12 5.12 99.84 61.44 2.56 7.68 5.12 15.36 2.56 20.48-2.56 7.68-7.68 12.8-12.8 15.36-12.8 7.68-30.72 2.56-38.4-12.8-15.36-28.16-23.040-30.72-56.32-30.72h-10.24c-17.92 0-33.28-7.68-48.64-20.48-46.080-48.64-53.76-194.56-48.64-304.64 2.56-15.36 15.36-28.16 30.72-28.16zM721.92 529.92c79.36 0 140.8 92.16 140.8 212.48 0 104.96-51.2 166.4-140.8 166.4s-140.8-61.44-140.8-166.4c0-117.76 61.44-212.48 140.8-212.48zM721.92 852.48c56.32 0 84.48-35.84 84.48-110.080 0-94.72-43.52-156.16-84.48-156.16s-84.48 64-84.48 156.16c0 74.24 28.16 110.080 84.48 110.080zM821.76 506.88c-7.68-2.56-10.24-10.24-12.8-15.36-2.56-7.68-2.56-15.36 2.56-20.48 28.16-56.32 66.56-61.44 97.28-61.44h17.92c2.56 0 5.12 0 7.68-5.12 30.72-33.28 35.84-161.28 33.28-232.96 0-2.56-2.56-5.12-5.12-5.12h-64c-2.56 0-5.12 2.56-5.12 5.12v97.28c0 15.36-12.8 28.16-28.16 28.16s-28.16-12.8-28.16-28.16v-97.28c0-2.56-2.56-5.12-5.12-5.12h-33.28c-15.36 0-28.16-12.8-28.16-28.16s12.8-28.16 28.16-28.16h192c15.36 0 28.16 12.8 28.16 25.6 5.12 110.080-2.56 256-48.64 304.64-12.8 12.8-30.72 20.48-48.64 20.48h-10.24c-33.28 0-40.96 0-56.32 30.72 0 15.36-17.92 20.48-33.28 15.36zM512 353.28c51.2 0 92.16 58.88 92.16 133.12 0 99.84-71.68 107.52-92.16 107.52s-92.16-7.68-92.16-107.52c0-74.24 40.96-133.12 92.16-133.12zM512 537.6c17.92 0 35.84-5.12 35.84-51.2s-23.040-76.8-35.84-76.8c-15.36 0-35.84 30.72-35.84 76.8s17.92 51.2 35.84 51.2zM432.64 276.48c5.12 5.12 10.24 10.24 12.8 17.92s0 15.36-5.12 20.48-25.6 15.36-38.4 7.68c-94.72-64-76.8-184.32-76.8-189.44 2.56-12.8 12.8-23.040 28.16-23.040h320c12.8 0 25.6 10.24 28.16 23.040 0 5.12 17.92 125.44-76.8 189.44-12.8 7.68-30.72 5.12-38.4-7.68-5.12-5.12-5.12-12.8-5.12-20.48 2.56-7.68 5.12-12.8 12.8-17.92 43.52-28.16 51.2-79.36 53.76-104.96 0 0 0-2.56 0-2.56s-2.56-2.56-2.56-2.56h-261.12c0 0-2.56 0-2.56 2.56 0 0 0 2.56 0 2.56 0 28.16 7.68 76.8 51.2 104.96zM995.84 38.4h-967.68c-15.36 0-28.16-12.8-28.16-28.16s12.8-28.16 28.16-28.16h967.68c15.36 0 28.16 12.8 28.16 28.16s-12.8 28.16-28.16 28.16z" />
<glyph unicode="&#xe911;" glyph-name="fashion" d="M829.44 824.32c-2.56 5.12-7.68 7.68-10.24 7.68l-148.48 74.24-69.12 48.64c-2.56 2.56-7.68 5.12-12.8 5.12 0 0 0 0 0 0h-145.92c0 0-2.56 0-2.56 0-5.12 0-12.8 0-15.36-5.12l-69.12-48.64-151.040-74.24c-2.56 0-5.12-2.56-7.68-7.68-107.52-156.16-156.16-721.92-158.72-744.96 0-7.68 2.56-12.8 5.12-17.92 5.12-5.12 10.24-7.68 17.92-7.68l140.8-5.12c12.8 0 23.040 7.68 25.6 20.48l30.72 168.96v-271.36c0-2.56 0-5.12 0-5.12 0-10.24 7.68-17.92 15.36-23.040 5.12-2.56 12.8-2.56 17.92 0 10.24 0 43.52 0 89.6-2.56 2.56 0 2.56 0 5.12 0v0c69.12 0 107.52 76.8 128 153.6 20.48-76.8 58.88-153.6 128-153.6 2.56 0 2.56 0 5.12 0 33.28 2.56 58.88 2.56 74.24 2.56 5.12 0 10.24 0 12.8 0 5.12-2.56 12.8-2.56 20.48 0 10.24 2.56 15.36 12.8 15.36 23.040 0 2.56 0 5.12 0 5.12v268.8l30.72-168.96c2.56-12.8 12.8-20.48 23.040-20.48 0 0 0 0 0 0l140.8 5.12c7.68 0 12.8 2.56 17.92 7.68s7.68 12.8 5.12 17.92c-2.56 25.6-51.2 591.36-158.72 747.52zM622.080 883.2l23.040-17.92c0 0 2.56-2.56 2.56-2.56l25.6-12.8c0-23.040-10.24-215.040-102.4-353.28 56.32 168.96 56.32 307.2 51.2 386.56zM376.32 865.28c0 0 2.56 0 2.56 2.56l25.6 15.36c-7.68-76.8-7.68-217.6 48.64-386.56-89.6 138.24-99.84 330.24-99.84 353.28l23.040 15.36zM460.8 87.040c-12.8-46.080-38.4-102.4-76.8-102.4h-2.56c-33.28 2.56-58.88 2.56-76.8 2.56v271.36c5.12-7.68 12.8-12.8 20.48-12.8h97.28c12.8 0 25.6 10.24 25.6 25.6 0 12.8-10.24 25.6-25.6 25.6h-97.28c-10.24 0-17.92-5.12-20.48-12.8v225.28c0 12.8-10.24 23.040-23.040 23.040s-23.040-7.68-25.6-20.48l-74.24-414.72-94.72 5.12c10.24 99.84 58.88 555.52 145.92 691.2l69.12 35.84c5.12-79.36 33.28-314.88 181.76-440.32 0 0 2.56-2.56 2.56-2.56v-145.92c0-30.72-7.68-97.28-25.6-153.6zM458.24 911.36h110.080c7.68-56.32 23.040-230.4-56.32-437.76-76.8 209.92-64 381.44-53.76 437.76zM842.24 97.28l-74.24 414.72c-2.56 12.8-12.8 20.48-25.6 20.48s-23.040-12.8-23.040-23.040v-227.84c-5.12 7.68-12.8 12.8-20.48 12.8h-97.28c-12.8 0-25.6-10.24-25.6-25.6 0-12.8 10.24-25.6 25.6-25.6h97.28c10.24 0 17.92 5.12 20.48 12.8v-268.8c-12.8 0-38.4 0-76.8-2.56h-2.56c-66.56 0-99.84 171.52-104.96 253.44v145.92c0 0 2.56 0 2.56 2.56 148.48 125.44 176.64 363.52 181.76 440.32l69.12-35.84c87.040-135.68 135.68-591.36 145.92-691.2l-92.16-2.56z" />
<glyph unicode="&#xe912;" glyph-name="flyndrive" d="M1021.44 601.6c-10.24 30.72-35.84 51.2-69.12 51.2-7.68 0-15.36 0-20.48-2.56l-40.96-12.8-69.12 143.36-20.48 7.68c-81.92 25.6-197.12 43.52-312.32 43.52-112.64 0-212.48-15.36-284.16-43.52l-17.92-10.24-66.56-151.040-28.16 7.68c-7.68 2.56-15.36 2.56-20.48 2.56-30.72 0-58.88-20.48-69.12-51.2-5.12-15.36-2.56-35.84 5.12-51.2 10.24-17.92 23.040-30.72 43.52-35.84l5.12-2.56-5.12-7.68c-15.36-30.72-25.6-69.12-25.6-97.28 0-15.36 0-48.64 0-79.36v-174.080c0-17.92 0-33.28 5.12-46.080 7.68-20.48 25.6-33.28 48.64-33.28h102.4c23.040 0 40.96 10.24 48.64 30.72 5.12 12.8 5.12 30.72 5.12 46.080v2.56c0 0 0 7.68 0 17.92 120.32-10.24 197.12-15.36 271.36-15.36 0 0 0 0 0 0 74.24 0 148.48 5.12 263.68 15.36 0-10.24 0-17.92 0-17.92v-2.56c0-17.92 0-33.28 5.12-46.080 7.68-20.48 25.6-33.28 48.64-33.28h102.4c23.040 0 40.96 10.24 48.64 33.28 5.12 12.8 5.12 30.72 5.12 46.080v171.52c0 0 0 0 0 2.56 2.56 30.72 5.12 64 5.12 84.48 0 33.28-10.24 71.68-28.16 102.4l-5.12 10.24 20.48 7.68c38.4 7.68 58.88 48.64 48.64 87.040zM225.28 739.84v0c64 28.16 158.72 40.96 263.68 40.96 110.080 0 220.16-15.36 294.4-40.96h2.56l56.32-117.76c-99.84-25.6-217.6-25.6-279.040-25.6h-46.080c-130.56 0-253.44 0-348.16 20.48l56.32 122.88zM184.32 138.24c0-10.24 0-23.040-2.56-28.16 0 0 0 0-2.56 0h-102.4c0 0 0 0-2.56 0 2.56 5.12 2.56 17.92 2.56 28.16v38.4c7.68-2.56 15.36-5.12 23.040-7.68 30.72-2.56 58.88-5.12 87.040-7.68-2.56-12.8-2.56-23.040-2.56-23.040v0zM929.28 138.24v0c0-10.24 0-25.6-2.56-30.72 0 0 0 0-2.56 0h-102.4c0 0 0 0-2.56 0-2.56 5.12-2.56 20.48-2.56 28.16v2.56c0 0 0 10.24 0 20.48 25.6 2.56 51.2 5.12 81.92 7.68 10.24 0 20.48 5.12 28.16 7.68l2.56-35.84zM960 558.080l-76.8-23.040 30.72-61.44c12.8-25.6 20.48-56.32 23.040-79.36 0-15.36-2.56-46.080-2.56-74.24v0-7.68c0-17.92-2.56-33.28-2.56-46.080 0-17.92-12.8-46.080-30.72-48.64-194.56-17.92-291.84-28.16-391.68-28.16s-202.24 10.24-407.040 28.16c-12.8 0-20.48 20.48-23.040 38.4 0 15.36-2.56 35.84-2.56 56.32v7.68c0 28.16-2.56 53.76 0 69.12 0 17.92 7.68 48.64 20.48 76.8l30.72 61.44-64 20.48c-5.12 2.56-10.24 5.12-12.8 10.24s-2.56 10.24-2.56 17.92c2.56 10.24 10.24 15.36 20.48 15.36 2.56 0 5.12 0 7.68 0l71.68-23.040v2.56c89.6-20.48 202.24-23.040 322.56-23.040 15.36 0 30.72 0 46.080 0h46.080c64 0 192 0 299.52 30.72v0l20.48 7.68 61.44 17.92c10.24 2.56 23.040-2.56 28.16-15.36 2.56-12.8-2.56-25.6-12.8-30.72zM189.44 440.32c-43.52 0-79.36-35.84-79.36-79.36s35.84-79.36 79.36-79.36 79.36 35.84 79.36 79.36c-2.56 46.080-35.84 79.36-79.36 79.36zM189.44 335.36c-15.36 0-28.16 12.8-28.16 28.16s12.8 28.16 28.16 28.16c15.36 0 28.16-12.8 28.16-28.16s-12.8-28.16-28.16-28.16zM819.2 440.32c-43.52 0-79.36-35.84-79.36-79.36s35.84-79.36 79.36-79.36c43.52 0 79.36 35.84 79.36 79.36 0 46.080-35.84 79.36-79.36 79.36zM819.2 335.36c-15.36 0-28.16 12.8-28.16 28.16s12.8 28.16 28.16 28.16c15.36 0 28.16-12.8 28.16-28.16s-12.8-28.16-28.16-28.16zM312.32 322.56h389.12v-51.2h-389.12v51.2zM312.32 422.4h389.12v-51.2h-389.12v51.2z" />
<glyph unicode="&#xe913;" glyph-name="frankrijk" d="M798.72-20.48c0 0-64 74.24-120.32 222.72 12.8 2.56 23.040 12.8 23.040 25.6 0 15.36-12.8 25.6-25.6 25.6h-15.36c-46.080 133.12-69.12 276.48-71.68 430.080h5.12c15.36 0 25.6 12.8 25.6 25.6 0 15.36-12.8 25.6-25.6 25.6h-5.12v10.24c0 28.16-17.92 53.76-43.52 66.56v122.88c0 15.36-12.8 25.6-25.6 25.6-15.36 0-25.6-12.8-25.6-25.6v-125.44c-25.6-10.24-43.52-35.84-43.52-66.56v-7.68h-7.68c-15.36 0-25.6-12.8-25.6-25.6 0-15.36 12.8-25.6 25.6-25.6h5.12c0-84.48-10.24-168.96-23.040-250.88h-7.68c-15.36 0-25.6-12.8-25.6-25.6s10.24-25.6 23.040-25.6c-17.92-79.36-40.96-153.6-71.68-220.16-51.2-117.76-104.96-181.76-104.96-181.76-10.24-10.24-7.68-28.16 2.56-38.4s28.16-7.68 38.4 2.56c5.12 5.12 130.56 151.040 189.44 435.2h58.88c15.36 0 25.6 12.8 25.6 25.6 0 15.36-12.8 25.6-25.6 25.6h-48.64c12.8 79.36 20.48 163.84 23.040 250.88h35.84c2.56-153.6 23.040-296.96 66.56-430.080h-143.36c-15.36 0-25.6-12.8-25.6-25.6 0-15.36 12.8-25.6 25.6-25.6h158.72c61.44-163.84 130.56-248.32 138.24-256 5.12-5.12 12.8-10.24 20.48-10.24 5.12 0 12.8 2.56 17.92 7.68s7.68 10.24 10.24 17.92c-2.56 7.68-2.56 15.36-7.68 20.48zM535.040 744.96v-7.68h-35.84v7.68c0 10.24 7.68 17.92 17.92 17.92 10.24-2.56 17.92-10.24 17.92-17.92zM517.12 125.44c-89.6 0-163.84-74.24-163.84-163.84 0-15.36 12.8-25.6 25.6-25.6 15.36 0 25.6 12.8 25.6 25.6 0 61.44 48.64 110.080 110.080 110.080s110.080-48.64 110.080-110.080c0-15.36 12.8-25.6 25.6-25.6 15.36 0 25.6 12.8 25.6 25.6 5.12 92.16-69.12 163.84-158.72 163.84z" />
<glyph unicode="&#xe914;" glyph-name="gastronomie" d="M972.8 829.44v0c-5.12 2.56-10.24 5.12-20.48 5.12-7.68 0-12.8-5.12-17.92-12.8l-153.6-209.92-17.92 15.36 156.16 207.36c7.68 12.8 5.12 28.16-5.12 38.4-12.8 7.68-28.16 5.12-38.4-5.12l-156.16-207.36-20.48 17.92 166.4 197.12c7.68 2.56 12.8 10.24 12.8 17.92s-2.56 15.36-10.24 17.92c-5.12 5.12-12.8 5.12-20.48 5.12s-15.36-2.56-17.92-7.68l-166.4-199.68-12.8 10.24 168.96 197.12c2.56 5.12 5.12 12.8 5.12 20.48s-2.56 15.36-10.24 17.92c-5.12 5.12-10.24 5.12-17.92 5.12s-15.36-2.56-17.92-7.68l-186.88-217.6c0 0-2.56-2.56-2.56-2.56-33.28-40.96-51.2-87.040-51.2-128 0-35.84 7.68-64 28.16-84.48l-15.36-20.48c-7.68-12.8-5.12-28.16 5.12-38.4 2.56 0 2.56-2.56 2.56-2.56 2.56-2.56 5.12-2.56 10.24-2.56 10.24 0 17.92 5.12 20.48 12.8l12.8 17.92c15.36-7.68 35.84-12.8 53.76-12.8 51.2 0 104.96 30.72 148.48 87.040 0 0 2.56 0 2.56 2.56 2.56 0 2.56 2.56 2.56 5.12l166.4 232.96c10.24 2.56 10.24 20.48-2.56 28.16zM750.080 573.44c-28.16-30.72-64-48.64-94.72-48.64-15.36 0-30.72 5.12-40.96 15.36-20.48 15.36-30.72 35.84-28.16 61.44v0c0 20.48 10.24 46.080 28.16 76.8l135.68-104.96zM445.44 258.56c-5.12 2.56-12.8 5.12-17.92 2.56-7.68-2.56-12.8-7.68-15.36-12.8-69.12-115.2-102.4-171.52-117.76-192-25.6-30.72-51.2-51.2-74.24-61.44-17.92-7.68-33.28-10.24-40.96-5.12-15.36 15.36-2.56 71.68 38.4 128 10.24 10.24 40.96 46.080 140.8 140.8 5.12 5.12 7.68 12.8 7.68 17.92s-2.56 15.36-5.12 17.92c-5.12 5.12-10.24 7.68-15.36 7.68-7.68 0-15.36-2.56-20.48-7.68-76.8-71.68-125.44-122.88-148.48-148.48-64-79.36-76.8-163.84-30.72-199.68 15.36-7.68 30.72-10.24 43.52-10.24 15.36 0 33.28 5.12 51.2 12.8 33.28 17.92 66.56 43.52 92.16 76.8 17.92 23.040 56.32 87.040 122.88 197.12 5.12 7.68 5.12 17.92 5.12 25.6-5.12 5.12-10.24 7.68-15.36 10.24zM545.28 419.84c-10.24 23.040-28.16 48.64-48.64 79.36l-12.8 17.92c-35.84 51.2-128 156.16-197.12 230.4-156.16 166.4-189.44 166.4-207.36 166.4-10.24 0-20.48-5.12-28.16-15.36-10.24-12.8-28.16-35.84 66.56-227.84 46.080-94.72 102.4-189.44 117.76-217.6 17.92-28.16 107.52-161.28 209.92-161.28 12.8 0 25.6 2.56 38.4 7.68v0c76.8-138.24 135.68-238.080 158.72-268.8 40.96-53.76 99.84-92.16 143.36-92.16 15.36 0 30.72 5.12 43.52 12.8 15.36 10.24 23.040 28.16 28.16 51.2 5.12 43.52-15.36 99.84-53.76 148.48-28.16 48.64-204.8 217.6-258.56 268.8zM811.52 10.24c0-7.68-2.56-10.24-7.68-15.36-2.56-2.56-7.68-5.12-15.36-5.12-23.040 2.56-61.44 23.040-99.84 71.68-20.48 28.16-79.36 125.44-166.4 284.16-2.56 5.12-10.24 12.8-15.36 12.8h-5.12c-5.12 0-7.68 0-12.8-2.56s-10.24-5.12-17.92-7.68c-7.68-2.56-15.36-5.12-23.040-5.12-56.32 0-120.32 71.68-166.4 138.24-51.2 76.8-163.84 291.84-186.88 371.2 17.92-12.8 61.44-46.080 153.6-143.36 66.56-71.68 156.16-171.52 189.44-222.72l12.8-20.48c20.48-30.72 38.4-56.32 46.080-71.68 0-2.56 2.56-5.12 5.12-10.24 145.92-140.8 240.64-235.52 263.68-263.68 35.84-38.4 48.64-84.48 46.080-110.080z" />
<glyph unicode="&#xe915;" glyph-name="googleplus" d="M0 476.16c2.56 166.4 158.72 314.88 325.12 307.2 79.36 2.56 156.16-30.72 217.6-79.36-25.6-30.72-53.76-58.88-81.92-84.48-74.24 51.2-179.2 66.56-253.44 7.68-104.96-74.24-110.080-248.32-10.24-325.12 99.84-89.6 286.72-46.080 312.32 92.16-61.44 0-122.88 0-186.88 2.56 0 35.84 0 74.24 0 110.080 102.4 0 207.36 0 309.76 0 5.12-87.040-5.12-179.2-58.88-250.88-81.92-112.64-243.2-145.92-371.2-97.28-122.88 46.080-212.48 179.2-202.24 317.44zM837.12 599.040c30.72 0 61.44 0 92.16 0 0-30.72 0-61.44 0-92.16 30.72 0 61.44 0 92.16 0 0-30.72 0-61.44 0-92.16-30.72 0-61.44 0-92.16 0 0-30.72 0-61.44 0-92.16-30.72 0-61.44 0-92.16 0 0 30.72 0 61.44 0 92.16-30.72 0-61.44 0-92.16 0 0 30.72 0 61.44 0 92.16 30.72 0 61.44 0 92.16 0 0 30.72 0 61.44 0 92.16z" />
<glyph unicode="&#xe916;" glyph-name="hamburger" d="M0 785.92h1024v-76.8h-1024v76.8zM0 581.12h1024v-76.8h-1024v76.8zM0 376.32h1024v-76.8h-1024v76.8zM0 171.52h1024v-76.8h-1024v76.8z" />
<glyph unicode="&#xe917;" glyph-name="homenliving" d="M998.4 573.44c-23.040 30.72-61.44 48.64-97.28 56.32-10.24 2.56-23.040 0-33.28 0 0 20.48 0 46.080 0 48.64-5.12 115.2-97.28 207.36-215.040 207.36-48.64 0-99.84-17.92-138.24-48.64-38.4 30.72-87.040 48.64-138.24 48.64-115.2 0-209.92-89.6-215.040-204.8 0-2.56 0-38.4 0-61.44-51.2 7.68-99.84-12.8-135.68-53.76-40.96-51.2-33.28-130.56 20.48-174.080 20.48-15.36 43.52-23.040 71.68-20.48v-209.92c0-46.080 35.84-84.48 84.48-84.48h23.040v-35.84c0-12.8 10.24-25.6 25.6-25.6 12.8 0 25.6 10.24 25.6 25.6v35.84h468.48v-43.52c0-12.8 10.24-25.6 25.6-25.6 12.8 0 25.6 10.24 25.6 25.6v43.52h23.040c46.080 0 84.48 35.84 84.48 84.48v220.16c25.6-2.56 48.64 5.12 71.68 20.48 25.6 20.48 40.96 48.64 43.52 81.92 10.24 33.28-2.56 64-20.48 89.6zM212.48 678.4c2.56 87.040 76.8 153.6 161.28 153.6 43.52 0 89.6-17.92 117.76-51.2 10.24-10.24 28.16-10.24 35.84 0 30.72 33.28 74.24 51.2 117.76 51.2 89.6 0 158.72-69.12 161.28-156.16 0-2.56 0-43.52 0-66.56-7.68-5.12-15.36-7.68-20.48-15.36-43.52-33.28-69.12-87.040-66.56-148.48 0-12.8 0-43.52 0-79.36h-417.28c0 30.72 0 58.88 0 71.68 0 64-23.040 115.2-66.56 148.48-7.68 5.12-15.36 10.24-20.48 12.8-2.56 17.92-2.56 74.24-2.56 79.36zM302.080 250.88c0 15.36 0 38.4 0 66.56h422.4c0-25.6 0-48.64 0-66.56h-422.4zM972.8 488.96c-2.56-17.92-10.24-35.84-25.6-46.080-10.24-7.68-23.040-12.8-38.4-10.24-12.8 2.56-25.6 7.68-33.28 17.92-5.12 7.68-7.68 17.92-7.68 25.6 0 10.24 5.12 17.92 12.8 23.040 10.24 7.68 12.8 25.6 5.12 35.84s-25.6 12.8-35.84 5.12c-17.92-15.36-28.16-33.28-30.72-58.88-2.56-23.040 2.56-46.080 17.92-66.56 7.68-7.68 15.36-15.36 23.040-20.48v-235.52c0-17.92-15.36-30.72-30.72-30.72h-627.2c-17.92 0-30.72 15.36-30.72 30.72v227.84c7.68 10.24 15.36 17.92 23.040 25.6 28.16 35.84 23.040 94.72-12.8 122.88-10.24 7.68-25.6 7.68-35.84-5.12-7.68-10.24-7.68-25.6 5.12-35.84 15.36-12.8 17.92-33.28 5.12-48.64-7.68-10.24-20.48-17.92-33.28-17.92-12.8-2.56-25.6 2.56-38.4 10.24-15.36 10.24-23.040 28.16-25.6 46.080s2.56 35.84 15.36 51.2c28.16 40.96 89.6 46.080 130.56 15.36s46.080-84.48 46.080-110.080c0-33.28 0-171.52 0-204.8 0-2.56 0-5.12 0-7.68 0-7.68 2.56-12.8 7.68-17.92s10.24-7.68 17.92-7.68v0c2.56 0 5.12 0 5.12 0h465.92c12.8 0 25.6 10.24 25.6 25.6 0 2.56 0 5.12 0 7.68v0c0 2.56 0 176.64 0 212.48 0 25.6 5.12 76.8 46.080 110.080 20.48 15.36 43.52 23.040 71.68 20.48 25.6-2.56 46.080-15.36 64-35.84 15.36-15.36 20.48-33.28 17.92-53.76z" />
<glyph unicode="&#xe918;" glyph-name="hotelketens" d="M870.4 486.4h-696.32c-81.92 0-174.080-66.56-174.080-153.6v-174.080h1024v174.080c0 84.48-69.12 153.6-153.6 153.6zM174.080 432.64h696.32c56.32 0 99.84-46.080 99.84-99.84v-120.32h-916.48v120.32c0 56.32 66.56 99.84 120.32 99.84zM496.64 496.64v25.6c0 51.2-38.4 89.6-87.040 89.6h-107.52c-48.64 0-89.6-40.96-89.6-89.6v-25.6h53.76v25.6c0 20.48 15.36 35.84 35.84 35.84h107.52c20.48 0 35.84-15.36 35.84-35.84v-25.6h51.2zM791.040 496.64v25.6c0 51.2-38.4 89.6-87.040 89.6h-107.52c-48.64 0-89.6-40.96-89.6-89.6v-25.6h53.76v25.6c0 20.48 15.36 35.84 35.84 35.84h107.52c20.48 0 35.84-15.36 35.84-35.84v-25.6h51.2zM156.16 84.48h-40.96v64h-51.2v-89.6c0-15.36 12.8-25.6 25.6-25.6h84.48c10.24 0 20.48 7.68 25.6 17.92l23.040 69.12-51.2 17.92-15.36-53.76zM908.8 84.48h-38.4l-17.92 51.2-51.2-17.92 23.040-69.12c2.56-10.24 12.8-17.92 25.6-17.92h84.48c15.36 0 25.6 12.8 25.6 25.6v89.6h-53.76v-61.44zM158.72 691.2c0 20.48 15.36 38.4 35.84 38.4h104.96l7.68 15.36c12.8 33.28 92.16 69.12 194.56 69.12s179.2-35.84 194.56-69.12l5.12-15.36h104.96c20.48 0 35.84-15.36 35.84-35.84v-194.56h53.76v194.56c0 48.64-40.96 89.6-89.6 89.6h-71.68c-35.84 51.2-125.44 84.48-232.96 84.48s-199.68-33.28-232.96-84.48h-74.24c-48.64 0-89.6-40.96-89.6-89.6v-194.56h53.76v192z" />
<glyph unicode="&#xe919;" glyph-name="indekrant" d="M412.16 576h48.64v-450.56h-48.64v450.56zM780.8 573.44h-156.16v-189.44h156.16v189.44zM729.6 432.64h-58.88v92.16h58.88v-92.16zM125.44 273.92h215.040c12.8 0 25.6 10.24 25.6 25.6 0 12.8-10.24 25.6-25.6 25.6h-215.040c-12.8 0-25.6-10.24-25.6-25.6 0-12.8 10.24-25.6 25.6-25.6zM125.44 381.44h215.040c12.8 0 25.6 10.24 25.6 25.6 0 12.8-10.24 25.6-25.6 25.6h-215.040c-12.8 0-25.6-10.24-25.6-25.6 0-12.8 10.24-25.6 25.6-25.6zM125.44 488.96h215.040c12.8 0 25.6 10.24 25.6 25.6s-10.24 25.6-25.6 25.6h-215.040c-12.8 0-25.6-10.24-25.6-25.6s10.24-25.6 25.6-25.6zM125.44 166.4h215.040c12.8 0 25.6 10.24 25.6 25.6s-10.24 25.6-25.6 25.6h-215.040c-12.8 0-25.6-10.24-25.6-25.6s10.24-25.6 25.6-25.6zM540.16 273.92h215.040c12.8 0 25.6 10.24 25.6 25.6 0 12.8-10.24 25.6-25.6 25.6h-215.040c-12.8 0-25.6-10.24-25.6-25.6 0-12.8 12.8-25.6 25.6-25.6zM540.16 166.4h215.040c12.8 0 25.6 10.24 25.6 25.6s-10.24 25.6-25.6 25.6h-215.040c-12.8 0-25.6-10.24-25.6-25.6s12.8-25.6 25.6-25.6zM916.48 174.080l107.52 7.68-51.2 632.32-872.96-69.12 5.12-76.8h-104.96v-632.32h875.52v632.32h-719.36l-2.56 30.72 775.68 61.44 43.52-532.48-53.76-5.12v-48.64zM826.88 81.92h-778.24v537.6h778.24v-537.6z" />
<glyph unicode="&#xe91a;" glyph-name="kennismakingsactie" d="M1016.32 517.12l-145.92 230.4c-7.68 12.8-20.48 20.48-35.84 25.6-15.36 2.56-30.72 0-43.52-7.68l-15.36-10.24c-20.48-12.8-30.72-38.4-25.6-61.44l-23.040-10.24c-2.56 0-2.56 0-5.12 0l-79.36 17.92c-46.080 10.24-94.72 10.24-140.8 2.56l-76.8-12.8c-20.48-2.56-40.96-12.8-56.32-28.16l-66.56 10.24c0 0-2.56 0-2.56 0l-30.72 15.36c5.12 23.040-5.12 46.080-25.6 58.88l-12.8 7.68c-12.8 7.68-28.16 10.24-40.96 7.68-15.36-2.56-28.16-12.8-35.84-25.6l-145.92-230.4c-15.36-25.6-7.68-61.44 17.92-76.8l15.36-7.68c17.92-12.8 43.52-10.24 61.44 0l53.76-71.68-23.040-33.28c-17.92-25.6-12.8-61.44 12.8-79.36l15.36-10.24c5.12-5.12 12.8-7.68 20.48-10.24 2.56-15.36 10.24-30.72 23.040-40.96l20.48-10.24c12.8-7.68 28.16-12.8 43.52-10.24 0 0 2.56 0 2.56 0 5.12-7.68 12.8-15.36 20.48-20.48l17.92-10.24c15.36-7.68 33.28-7.68 48.64-2.56 5.12-7.68 12.8-12.8 23.040-17.92l7.68-2.56c7.68-2.56 15.36-5.12 20.48-5.12 17.92 0 33.28 7.68 43.52 23.040l125.44-17.92c20.48-2.56 38.4 5.12 51.2 17.92l12.8 15.36c23.040-5.12 48.64 5.12 61.44 25.6 12.8 17.92 17.92 30.72 23.040 35.84 17.92 0 35.84 10.24 46.080 25.6l23.040 35.84c0 0 0 0 0 0 17.92 0 35.84 10.24 46.080 25.6l15.36 25.6c7.68 12.8 10.24 28.16 7.68 43.52 0 2.56-2.56 5.12-2.56 7.68l66.56 64c17.92-7.68 35.84-5.12 51.2 5.12l15.36 10.24c28.16 15.36 35.84 48.64 20.48 76.8zM975.36 483.84c0-2.56-2.56-5.12-2.56-5.12l-15.36-10.24c-5.12-2.56-10.24-2.56-12.8 2.56l-145.92 230.4c-2.56 5.12-2.56 10.24 2.56 12.8l17.92 7.68c2.56 0 2.56 2.56 5.12 2.56 0 0 0 0 2.56 0s5.12-2.56 5.12-2.56l145.92-230.4c-2.56-2.56-2.56-5.12-2.56-7.68zM586.24 404.48c-2.56-5.12-5.12-12.8-2.56-17.92s5.12-10.24 10.24-15.36l153.6-92.16-17.92-28.16c-2.56-2.56-7.68-5.12-10.24-2.56l-140.8 76.8c-5.12 2.56-12.8 2.56-17.92 2.56-5.12-2.56-10.24-5.12-15.36-12.8-2.56-5.12-2.56-12.8-2.56-17.92 2.56-5.12 5.12-10.24 12.8-15.36l122.88-66.56c-5.12-7.68-10.24-15.36-17.92-25.6-2.56-2.56-7.68-5.12-10.24-2.56l-110.080 56.32c-5.12 2.56-12.8 2.56-17.92 2.56-5.12-2.56-10.24-5.12-12.8-12.8-2.56-5.12-2.56-12.8-2.56-17.92 2.56-5.12 5.12-10.24 12.8-12.8l76.8-38.4-5.12-5.12c-2.56-2.56-5.12-2.56-7.68-2.56l-102.4 15.36 2.56 2.56c17.92 23.040 12.8 56.32-10.24 76.8l-7.68 5.12c-5.12 2.56-7.68 5.12-12.8 7.68 5.12 20.48-2.56 43.52-17.92 58.88l-15.36 12.8c-5.12 5.12-12.8 7.68-23.040 10.24 0 2.56 0 5.12 0 7.68-2.56 15.36-12.8 28.16-25.6 35.84l-12.8 7.68c-25.6 15.36-58.88 10.24-76.8-15.36-2.56 2.56-5.12 5.12-7.68 7.68l-17.92 10.24c-23.040 12.8-51.2 10.24-69.12-7.68l-53.76 71.68 115.2 184.32 30.72-15.36c5.12-2.56 10.24-5.12 17.92-5.12l38.4-5.12-43.52-56.32c-10.24-12.8-12.8-25.6-10.24-40.96s10.24-28.16 23.040-38.4c17.92-12.8 40.96-15.36 58.88-5.12l135.68 71.68c2.56 2.56 5.12 0 7.68 0l307.2-199.68c2.56 0 2.56-2.56 2.56-5.12s0-5.12 0-5.12l-15.36-25.6c-2.56-2.56-7.68-5.12-10.24-2.56l-171.52 102.4c-5.12 2.56-12.8 5.12-17.92 2.56-7.68-7.68-12.8-10.24-15.36-15.36zM174.080 289.28l46.080 64c2.56 2.56 5.12 2.56 7.68 2.56s2.56 0 5.12 0l15.36-10.24c2.56 0 2.56-2.56 2.56-5.12s0-5.12 0-5.12l-48.64-66.56c0 0-2.56-2.56-5.12-2.56s-5.12 0-5.12 2.56l-15.36 10.24c-5.12 2.56-5.12 7.68-2.56 10.24zM232.96 230.4l10.24 12.8c12.8 20.48 33.28 46.080 46.080 69.12l30.72 43.52c2.56 2.56 5.12 2.56 7.68 2.56s2.56 0 5.12-2.56l15.36-10.24c2.56 0 2.56-2.56 2.56-5.12s0-5.12-2.56-5.12l-79.36-115.2c0-2.56-2.56-2.56-2.56-5.12l-5.12-7.68c0-2.56-2.56-2.56-5.12-2.56v0c-2.56 0-5.12 0-5.12 2.56l-15.36 10.24c-2.56 2.56-5.12 7.68-2.56 12.8zM309.76 189.44l69.12 102.4c2.56 2.56 2.56 2.56 7.68 2.56 2.56 0 2.56 0 5.12-2.56l15.36-12.8c2.56-2.56 5.12-7.68 2.56-10.24l-53.76-76.8c0 0-2.56-2.56-2.56-5.12l-10.24-15.36c-2.56-2.56-7.68-5.12-10.24-2.56l-17.92 10.24c-2.56 0-2.56 2.56-5.12 5.12 0 2.56 0 5.12 0 5.12zM478.72 591.36l-135.68-71.68c-2.56-2.56-5.12 0-7.68 0-2.56 2.56-2.56 2.56-2.56 5.12s0 5.12 2.56 5.12l64 84.48c10.24 12.8 25.6 23.040 40.96 25.6l76.8 12.8c40.96 7.68 81.92 7.68 122.88-2.56l79.36-17.92c10.24-2.56 23.040-2.56 33.28 2.56l28.16 10.24 120.32-192-69.12-56.32-296.96 192c-10.24 5.12-20.48 10.24-30.72 10.24-7.68-2.56-17.92-5.12-25.6-7.68zM445.44 197.12l-30.72-46.080c-2.56-2.56-5.12-5.12-10.24-2.56l-7.68 2.56c-2.56 0-5.12 2.56-5.12 5.12 0 0 0 2.56 0 5.12l35.84 51.2c0 0 2.56 2.56 7.68 2.56 2.56 0 2.56 0 5.12-2.56l7.68-5.12c0 0 0-5.12-2.56-10.24zM222.72 693.76l-145.92-230.4c-2.56-5.12-7.68-5.12-12.8-2.56l-12.8 10.24c0 2.56-2.56 2.56-2.56 5.12s0 5.12 0 5.12l145.92 230.4c0 2.56 2.56 2.56 5.12 2.56 0 0 0 0 2.56 0s2.56 0 5.12-2.56l12.8-7.68c5.12 0 5.12-7.68 2.56-10.24z" />
<glyph unicode="&#xe91b;" glyph-name="kerstmarkten" d="M542.72 481.28c0-9.897-8.023-17.92-17.92-17.92s-17.92 8.023-17.92 17.92c0 9.897 8.023 17.92 17.92 17.92s17.92-8.023 17.92-17.92zM437.76 591.36c0-9.897-8.023-17.92-17.92-17.92s-17.92 8.023-17.92 17.92c0 9.897 8.023 17.92 17.92 17.92s17.92-8.023 17.92-17.92zM647.68 622.080c0-9.897-8.023-17.92-17.92-17.92s-17.92 8.023-17.92 17.92c0 9.897 8.023 17.92 17.92 17.92s17.92-8.023 17.92-17.92zM1011.2 399.36c-2.56 5.12-7.68 10.24-15.36 10.24-23.040 5.12-40.96 20.48-48.64 40.96s-5.12 46.080 7.68 64c5.12 7.68 5.12 15.36 0 23.040s-12.8 10.24-20.48 10.24c-20.48 0-40.96 7.68-58.88 23.040-15.36 15.36-25.6 35.84-25.6 56.32 0 7.68-2.56 12.8-7.68 17.92s-12.8 5.12-17.92 5.12c-66.56-15.36-92.16-10.24-122.88 5.12-15.36 43.52-53.76 74.24-99.84 74.24-12.8 0-28.16-2.56-38.4-7.68 12.8 30.72 25.6 71.68 25.6 110.080 0 120.32-53.76 128-69.12 128s-69.12-10.24-69.12-128c0-48.64 20.48-102.4 35.84-133.12-10.24 2.56-20.48 5.12-30.72 5.12-30.72 0-58.88-12.8-79.36-35.84-2.56 0-2.56 0-5.12-2.56-58.88-28.16-84.48-28.16-153.6-7.68-7.68 2.56-15.36 0-20.48-2.56-5.12-5.12-7.68-10.24-7.68-17.92 2.56-46.080-35.84-89.6-79.36-97.28-12.8-2.56-20.48-12.8-17.92-23.040 7.68-58.88-23.040-122.88-74.24-153.6-5.12-2.56-7.68-7.68-10.24-12.8s0-10.24 2.56-15.36c33.28-53.76 43.52-117.76 28.16-179.2-2.56-10.24 2.56-17.92 10.24-23.040 2.56-2.56 7.68-2.56 10.24-2.56 5.12 0 10.24 2.56 15.36 5.12 48.64 48.64 120.32 74.24 189.44 69.12 10.24 0 20.48 7.68 23.040 17.92 5.12 25.6 25.6 51.2 53.76 69.12 7.68 5.12 15.36 7.68 23.040 12.8 10.24-43.52 2.56-97.28-35.84-120.32-5.12-2.56-10.24-7.68-10.24-15.36 0-5.12 0-12.8 5.12-17.92 38.4-48.64 56.32-117.76 46.080-189.44 0-10.24 2.56-17.92 12.8-23.040 0-2.56 2.56-2.56 5.12-2.56 5.12 0 10.24 2.56 15.36 5.12 66.56 66.56 99.84 87.040 174.080 87.040 0 0 2.56 0 2.56 0 12.8 0 20.48 10.24 20.48 20.48 0 71.68 28.16 110.080 87.040 120.32 5.12 0 12.8 5.12 15.36 10.24s5.12 12.8 2.56 17.92c-10.24 28.16-12.8 69.12 2.56 102.4 5.12-2.56 7.68-2.56 12.8-5.12 20.48-15.36 33.28-38.4 33.28-66.56 0-7.68 5.12-12.8 10.24-17.92 5.12-2.56 12.8-5.12 20.48-2.56 28.16 10.24 61.44 7.68 87.040-7.68s64-38.4 69.12-64c2.56-10.24 10.24-17.92 20.48-17.92 0 0 0 0 0 0 10.24 0 17.92 7.68 20.48 17.92 7.68 38.4 10.24 76.8 12.8 112.64 2.56 46.080 5.12 89.6 17.92 130.56 2.56 7.68 2.56 15.36 0 20.48zM663.040 624.64c0-25.6-15.36-46.080-35.84-56.32-20.48 23.040-48.64 38.4-81.92 38.4 0 0-2.56 0-2.56 0-2.56 5.12-2.56 10.24-2.56 17.92 0 33.28 28.16 61.44 61.44 61.44s61.44-28.16 61.44-61.44zM545.28 440.32c-33.28 0-61.44 28.16-61.44 61.44s28.16 61.44 61.44 61.44 61.44-28.16 61.44-61.44c0-35.84-28.16-61.44-61.44-61.44zM517.12 916.48c7.68 0 25.6-20.48 25.6-84.48 0-35.84-12.8-74.24-25.6-102.4-12.8 28.16-25.6 66.56-25.6 102.4 0 64 17.92 84.48 25.6 84.48zM453.12 660.48c15.36 0 30.72-7.68 43.52-17.92 0-5.12-2.56-10.24-2.56-17.92 0-10.24 2.56-20.48 5.12-28.16-25.6-12.8-43.52-33.28-53.76-61.44-30.72 5.12-53.76 30.72-53.76 61.44 0 35.84 25.6 64 61.44 64zM314.88 325.12c-33.28-20.48-56.32-48.64-66.56-79.36 0 0 0 0-2.56 0-56.32 0-112.64-17.92-161.28-48.64 2.56 48.64-7.68 97.28-28.16 140.8 51.2 38.4 81.92 102.4 79.36 163.84 48.64 15.36 84.48 58.88 94.72 107.52 46.080-12.8 79.36-12.8 117.76 0 0-5.12 0-7.68 0-12.8 0-10.24 2.56-17.92 2.56-25.6-97.28-66.56-176.64-158.72-222.72-266.24-5.12-10.24 0-23.040 10.24-28.16 2.56-2.56 5.12-2.56 7.68-2.56 7.68 0 15.36 5.12 20.48 12.8 43.52 97.28 115.2 184.32 202.24 245.76 15.36-20.48 38.4-33.28 64-38.4-30.72-38.4-33.28-92.16-28.16-138.24-28.16 0-58.88-10.24-89.6-30.72zM560.64 71.68c-61.44-2.56-102.4-23.040-148.48-61.44-2.56 56.32-17.92 107.52-46.080 148.48 40.96 38.4 51.2 99.84 38.4 153.6 7.68 0 15.36 0 23.040-2.56s15.36 0 20.48 5.12c5.12 5.12 7.68 12.8 7.68 20.48-7.68 48.64-7.68 81.92 2.56 107.52 12.8-17.92 30.72-33.28 53.76-40.96 10.24-81.92-5.12-184.32-46.080-258.56-5.12-10.24-2.56-23.040 10.24-28.16 2.56-2.56 7.68-2.56 10.24-2.56 7.68 0 15.36 5.12 20.48 12.8 43.52 81.92 61.44 184.32 51.2 273.92 15.36 2.56 30.72 5.12 43.52 15.36 17.92-25.6 20.48-53.76 20.48-99.84 0-7.68 5.12-15.36 10.24-17.92 5.12-5.12 15.36-5.12 20.48 0 2.56 2.56 5.12 2.56 10.24 5.12-7.68-30.72-5.12-61.44 0-87.040-61.44-25.6-97.28-71.68-102.4-143.36zM949.76 253.44c0-17.92-2.56-33.28-2.56-51.2-17.92 15.36-38.4 28.16-56.32 38.4-28.16 17.92-64 23.040-97.28 17.92-7.68 30.72-23.040 53.76-48.64 74.24-17.92 12.8-43.52 23.040-84.48 12.8-2.56 38.4-10.24 66.56-30.72 97.28 12.8 17.92 20.48 38.4 20.48 61.44 0 10.24-2.56 17.92-5.12 28.16 2.56 2.56 5.12 2.56 7.68 5.12 0 0 2.56-2.56 5.12-2.56 99.84-66.56 181.76-161.28 232.96-268.8 2.56-7.68 10.24-12.8 20.48-12.8 2.56 0 5.12 0 10.24 2.56 10.24 5.12 15.36 17.92 10.24 28.16-53.76 112.64-138.24 212.48-243.2 284.16 10.24 12.8 15.36 28.16 17.92 43.52 30.72-10.24 61.44-12.8 104.96-2.56 5.12-23.040 17.92-43.52 35.84-61.44 15.36-15.36 35.84-25.6 56.32-30.72-7.68-23.040-7.68-51.2 2.56-74.24 10.24-28.16 33.28-48.64 58.88-61.44-10.24-48.64-12.8-89.6-15.36-128z" />
<glyph unicode="&#xe91c;" glyph-name="landen" d="M875.52 655.36c-28.16 102.4-89.6 186.88-176.64 245.76l17.92 30.72v2.56l-43.52 25.6-69.12-122.88c-71.68 33.28-151.040 40.96-230.4 17.92-87.040-23.040-158.72-76.8-202.24-153.6-46.080-74.24-58.88-163.84-35.84-245.76 20.48-79.36 71.68-145.92 140.8-186.88l-74.24-128 43.52-25.6 25.6 43.52c56.32-28.16 117.76-43.52 181.76-43.52v-46.080h-81.92c-61.44 0-110.080-48.64-110.080-110.080v-25.6h430.080v25.6c0 61.44-48.64 110.080-110.080 110.080h-81.92v48.64c138.24 12.8 263.68 92.16 332.8 212.48 58.88 99.84 74.24 215.040 43.52 325.12zM176.64 576l92.16-53.76c-12.8-38.4-23.040-76.8-25.6-110.080-2.56-17.92-2.56-33.28 0-46.080-28.16 30.72-48.64 66.56-58.88 107.52-10.24 33.28-10.24 66.56-7.68 102.4zM532.48 616.96l69.12-40.96c-10.24-28.16-25.6-58.88-40.96-89.6-10.24-20.48-23.040-38.4-35.84-56.32l-74.24 43.52 81.92 143.36zM427.52 430.080l66.56-38.4c-20.48-25.6-43.52-46.080-66.56-61.44-28.16-20.48-53.76-30.72-76.8-33.28l76.8 133.12zM629.76 683.52c-2.56-17.92-5.12-38.4-10.24-61.44l-58.88 35.84 61.44 107.52c7.68-20.48 10.24-46.080 7.68-81.92zM491.52 640l-81.92-140.8-79.36 46.080c7.68 20.48 17.92 40.96 30.72 58.88 17.92 30.72 35.84 56.32 56.32 81.92l74.24-46.080zM535.040 368.64l81.92-48.64c-25.6-17.92-56.32-30.72-87.040-40.96-35.84-10.24-71.68-12.8-107.52-7.68 38.4 20.48 76.8 53.76 112.64 97.28zM565.76 407.040c12.8 17.92 25.6 35.84 35.84 56.32 17.92 28.16 30.72 58.88 43.52 87.040l92.16-53.76c-10.24-53.76-38.4-104.96-79.36-143.36l-92.16 53.76zM660.48 599.040c7.68 28.16 12.8 56.32 15.36 81.92 2.56 15.36 2.56 30.72 0 43.52 25.6-30.72 46.080-66.56 56.32-104.96 5.12-23.040 7.68-46.080 7.68-66.56l-79.36 46.080zM514.56 683.52l-66.56 38.4c48.64 48.64 94.72 71.68 128 71.68 0 0 2.56 0 2.56 0l-64-110.080zM291.84 407.040c2.56 28.16 10.24 58.88 20.48 92.16l71.68-40.96-79.36-138.24c-12.8 17.92-15.36 48.64-12.8 87.040zM407.040 744.96l-74.24 43.52c17.92 7.68 35.84 15.36 56.32 20.48 25.6 7.68 51.2 10.24 76.8 10.24 10.24 0 20.48 0 30.72-2.56-30.72-15.36-61.44-38.4-89.6-71.68zM373.76 709.12c-20.48-25.6-38.4-51.2-56.32-81.92-10.24-20.48-20.48-38.4-30.72-58.88l-97.28 56.32c17.92 51.2 51.2 99.84 94.72 133.12l89.6-48.64zM453.12 220.16c30.72 0 58.88 5.12 89.6 12.8 176.64 48.64 284.16 225.28 238.080 399.36-20.48 76.8-66.56 140.8-133.12 184.32l25.6 46.080c76.8-51.2 130.56-128 153.6-215.040 25.6-97.28 12.8-199.68-38.4-289.28-99.84-174.080-317.44-238.080-494.080-151.040l25.6 46.080c40.96-23.040 87.040-33.28 133.12-33.28zM312.32-15.36c10.24 23.040 30.72 35.84 56.32 35.84h212.48c23.040 0 46.080-15.36 56.32-35.84h-325.12z" />
<glyph unicode="&#xe91d;" glyph-name="longarrowdown" d="M307.2 145.92l209.92-209.92 207.36 209.92h-168.96v814.080h-76.8v-814.080z" />
<glyph unicode="&#xe91e;" glyph-name="longarrowup" d="M724.48 750.080l-207.36 209.92-209.92-209.92h171.52v-814.080h76.8v814.080z" />
<glyph unicode="&#xe91f;" glyph-name="luxe" d="M1024 568.32c0 0 0 0 0 0 0 2.56 0 2.56 0 2.56 0 2.56 0 5.12 0 5.12 0 2.56 0 2.56-2.56 2.56 0 0 0 2.56-2.56 2.56l-181.76 243.2c-2.56 5.12-7.68 10.24-12.8 12.8 0 0 0 0 0 0-2.56 0-2.56 2.56-5.12 2.56s-2.56 0-5.12 0c0 0-2.56 0-2.56 0h-599.040c0 0-2.56 0-2.56 0s-2.56 0-2.56 0-2.56 0-5.12 0-2.56 0-5.12-2.56c0 0-2.56-2.56-5.12-5.12 0 0-2.56 0-2.56-2.56l-186.88-248.32c0 0 0-2.56-2.56-2.56 0 0-2.56-2.56-2.56-2.56 0-2.56 0-5.12 0-5.12s0-2.56 0-2.56c0 0 0 0 0 0 0-2.56 0-5.12 2.56-7.68 0 0 0 0 0 0 0-2.56 2.56-5.12 5.12-7.68l486.4-509.44c0 0 0 0 0 0v0c0 0 0 0 0 0 2.56-2.56 5.12-2.56 7.68-5.12 0 0 2.56 0 2.56 0 2.56 0 5.12-2.56 10.24-2.56 0 0 0 0 0 0 7.68 0 17.92 5.12 20.48 12.8l483.84 501.76c2.56 2.56 5.12 5.12 5.12 7.68 0 0 0 0 0 0 2.56 5.12 2.56 7.68 2.56 10.24zM486.4 168.96l-184.32 376.32h181.76l2.56-376.32zM550.4 593.92l58.88 161.28 107.52-161.28h-166.4zM309.76 593.92l104.96 161.28 58.88-161.28h-163.84zM721.92 542.72l-184.32-376.32-2.56 376.32h186.88zM826.88 752.64l120.32-158.72h-151.040l30.72 158.72zM750.080 634.88l-102.4 156.16h133.12l-30.72-156.16zM512 637.44l-53.76 153.6h110.080l-56.32-153.6zM273.92 634.88l-30.72 156.16h133.12l-102.4-156.16zM230.4 593.92h-153.6l120.32 161.28 33.28-161.28zM245.76 542.72l171.52-345.6-332.8 345.6h161.28zM780.8 542.72h158.72l-327.68-343.040 168.96 343.040z" />
<glyph unicode="&#xe920;" glyph-name="message" d="M501.76 471.040c0-15.552-12.608-28.16-28.16-28.16s-28.16 12.608-28.16 28.16c0 15.552 12.608 28.16 28.16 28.16s28.16-12.608 28.16-28.16zM632.32 471.040c0-15.552-12.608-28.16-28.16-28.16s-28.16 12.608-28.16 28.16c0 15.552 12.608 28.16 28.16 28.16s28.16-12.608 28.16-28.16zM760.32 471.040c0-15.552-12.608-28.16-28.16-28.16s-28.16 12.608-28.16 28.16c0 15.552 12.608 28.16 28.16 28.16s28.16-12.608 28.16-28.16zM30.72-10.24c-5.12 0-10.24 2.56-15.36 5.12-7.68 5.12-15.36 15.36-15.36 25.6v389.12c0 176.64 133.12 327.68 307.2 348.16 15.36 2.56 30.72-10.24 33.28-25.6s-10.24-30.72-25.6-33.28c-145.92-17.92-253.44-140.8-253.44-289.28v-340.48l143.36 76.8c7.68 5.12 17.92 5.12 25.6 0 38.4-17.92 79.36-25.6 120.32-25.6s81.92 7.68 117.76 25.6c15.36 7.68 33.28 0 38.4-15.36 7.68-15.36 0-33.28-15.36-38.4-46.080-20.48-92.16-30.72-143.36-30.72-46.080 0-89.6 7.68-130.56 25.6l-176.64-89.6c-2.56-5.12-5.12-7.68-10.24-7.68zM993.28-10.24c-5.12 0-10.24 0-12.8 2.56l-209.92 110.080c-48.64-20.48-102.4-30.72-156.16-30.72-225.28 0-409.6 184.32-409.6 412.16s184.32 412.16 409.6 412.16 409.6-184.32 409.6-412.16v-463.36c0-10.24-5.12-20.48-15.36-25.6-2.56-2.56-10.24-5.12-15.36-5.12zM770.56 166.4c5.12 0 10.24 0 12.8-2.56l179.2-92.16v412.16c2.56 194.56-156.16 353.28-348.16 353.28s-348.16-158.72-348.16-353.28c0-194.56 156.16-350.72 350.72-350.72 51.2 0 99.84 10.24 143.36 30.72 2.56 2.56 7.68 2.56 10.24 2.56z" />
<glyph unicode="&#xe921;" glyph-name="minicruise" d="M1018.88 366.080l-151.040 212.48c-5.12 7.68-15.36 12.8-23.040 12.8-10.24 0-17.92-5.12-23.040-12.8l-148.48-215.040c-5.12-7.68-7.68-20.48-2.56-28.16 5.12-10.24 15.36-15.36 25.6-15.36h61.44c-17.92-81.92-76.8-148.48-153.6-179.2v550.4c33.28 25.6 53.76 69.12 53.76 112.64-2.56 79.36-69.12 143.36-145.92 143.36s-145.92-64-145.92-143.36c0-43.52 20.48-87.040 58.88-115.2v-547.84c-79.36 28.16-135.68 97.28-153.6 179.2h61.44c10.24 0 20.48 5.12 25.6 15.36s5.12 20.48-2.56 28.16l-153.6 212.48c-5.12 7.68-12.8 12.8-23.040 12.8s-20.48-5.12-25.6-12.8l-148.48-215.040c-5.12-7.68-7.68-20.48-2.56-28.16 5.12-10.24 15.36-15.36 25.6-15.36h64c25.6-207.36 204.8-366.080 419.84-366.080s391.68 158.72 417.28 368.64h64c10.24 0 20.48 5.12 25.6 15.36 7.68 10.24 5.12 23.040 0 30.72zM906.24 378.88c-15.36 0-28.16-12.8-28.16-25.6-10.24-192-168.96-340.48-363.52-340.48-192 0-350.72 148.48-363.52 340.48 0 15.36-12.8 25.6-28.16 25.6v0h-35.84l94.72 133.12 94.72-133.12h-40.96c-7.68 0-15.36-2.56-20.48-10.24-5.12-5.12-7.68-12.8-7.68-20.48 10.24-133.12 110.080-243.2 240.64-271.36 7.68-2.56 17.92 0 23.040 5.12 7.68 5.12 10.24 12.8 10.24 23.040v599.040c0 10.24-5.12 20.48-15.36 25.6-25.6 15.36-43.52 43.52-43.52 74.24 0 46.080 38.4 84.48 87.040 84.48s87.040-35.84 87.040-84.48c0-28.16-15.36-58.88-40.96-74.24-7.68-5.12-12.8-15.36-12.8-23.040v-601.6c0-7.68 5.12-15.36 10.24-23.040 7.68-5.12 15.36-7.68 23.040-5.12 130.56 28.16 230.4 138.24 240.64 271.36 0 7.68-2.56 15.36-7.68 20.48s-12.8 10.24-20.48 10.24v0h-38.4l94.72 133.12 94.72-133.12h-33.28zM552.96 801.28c0-21.208-17.192-38.4-38.4-38.4s-38.4 17.192-38.4 38.4c0 21.208 17.192 38.4 38.4 38.4s38.4-17.192 38.4-38.4z" />
<glyph unicode="&#xe922;" glyph-name="minus" d="M0 506.88h1024v-76.8h-1024v76.8z" />
<glyph unicode="&#xe923;" glyph-name="natuur" d="M261.12 322.56h-171.52l140.8 143.36c7.68 7.68 10.24 17.92 5.12 28.16s-12.8 15.36-23.040 15.36h-87.040l112.64 138.24c5.12 7.68 7.68 17.92 2.56 25.6s-12.8 15.36-23.040 15.36h-40.96l102.4 115.2 71.68-84.48 33.28 40.96-84.48 99.84c-5.12 5.12-12.8 7.68-20.48 7.68s-15.36-2.56-20.48-7.68l-156.16-184.32c-5.12-7.68-7.68-17.92-2.56-25.6s12.8-15.36 23.040-15.36h43.52l-115.2-135.68c-5.12-7.68-7.68-17.92-2.56-25.6s12.8-15.36 23.040-15.36h79.36l-143.36-143.36c-7.68-10.24-10.24-20.48-5.12-30.72s12.8-15.36 23.040-15.36h184.32l51.2 53.76zM1016.32 314.88l-140.8 143.36h79.36c10.24 0 17.92 5.12 23.040 15.36 5.12 7.68 2.56 17.92-2.56 25.6l-112.64 138.24h43.52c10.24 0 17.92 5.12 23.040 15.36 5.12 7.68 2.56 20.48-2.56 25.6l-156.16 184.32c-5.12 5.12-12.8 7.68-20.48 7.68s-15.36-2.56-20.48-7.68l-84.48-99.84 33.28-38.4 71.68 84.48 102.4-117.76h-40.96c-10.24 0-17.92-5.12-23.040-15.36-5.12-7.68-2.56-17.92 2.56-25.6l112.64-138.24h-84.48c-10.24 0-17.92-5.12-23.040-15.36s-2.56-20.48 5.12-28.16l140.8-143.36h-174.080l48.64-48.64h184.32c10.24 0 17.92 5.12 23.040 15.36 0 2.56 0 12.8-7.68 23.040zM811.52 204.8l-161.28 166.4h94.72c10.24 0 17.92 5.12 23.040 15.36 5.12 7.68 2.56 17.92-2.56 25.6l-130.56 158.72h53.76c10.24 0 17.92 5.12 23.040 15.36 5.12 7.68 2.56 20.48-2.56 25.6l-176.64 204.8c-5.12 5.12-12.8 7.68-20.48 7.68s-15.36-2.56-20.48-7.68l-176.64-204.8c-5.12-7.68-7.68-17.92-2.56-25.6s12.8-15.36 23.040-15.36h53.76l-130.56-158.72c-5.12-7.68-7.68-17.92-2.56-25.6s12.8-15.36 23.040-15.36h94.72l-161.28-166.4c-7.68-7.68-10.24-17.92-5.12-28.16s12.8-15.36 23.040-15.36h207.36v-140.8h145.92v140.8h209.92c10.24 0 17.92 5.12 23.040 15.36 5.12 7.68 2.56 20.48-5.12 28.16zM535.040 69.12h-43.52v92.16h43.52v-92.16zM291.84 212.48l161.28 166.4c7.68 7.68 10.24 17.92 5.12 28.16s-12.8 15.36-23.040 15.36h-99.84l130.56 158.72c5.12 7.68 7.68 17.92 2.56 25.6s-12.8 15.36-23.040 15.36h-51.2l120.32 138.24 120.32-140.8h-51.2c-10.24 0-17.92-5.12-23.040-15.36-5.12-7.68-2.56-17.92 2.56-25.6l130.56-158.72h-99.84c-10.24 0-17.92-5.12-23.040-15.36s-2.56-20.48 5.12-28.16l161.28-166.4h-445.44v2.56z" />
<glyph unicode="&#xe924;" glyph-name="nederland" d="M663.040 501.76l-5.12 30.72c0 7.68-2.56 15.36-5.12 20.48l284.16 248.32c5.12 5.12 7.68 12.8 10.24 20.48 0 7.68-2.56 15.36-7.68 20.48l-110.080 110.080c-5.12 5.12-12.8 7.68-20.48 7.68s-15.36-2.56-20.48-10.24l-256-291.84c-2.56-2.56-2.56-2.56-2.56-5.12-7.68 0-15.36 0-23.040 0 0 2.56-2.56 5.12-2.56 5.12l-258.56 291.84c-2.56 7.68-10.24 10.24-17.92 10.24-10.24 0-15.36-2.56-20.48-7.68l-110.080-110.080c-5.12-5.12-7.68-12.8-7.68-20.48s2.56-15.36 10.24-20.48l284.16-248.32c-2.56-7.68-2.56-12.8-5.12-20.48l-5.12-33.28-273.92-238.080c-5.12-5.12-10.24-12.8-10.24-20.48s2.56-15.36 7.68-20.48l110.080-110.080c5.12-5.12 12.8-7.68 20.48-7.68 0 0 0 0 0 0 7.68 0 15.36 2.56 20.48 10.24l87.040 99.84-30.72-215.040c-2.56-15.36 2.56-30.72 12.8-43.52s25.6-17.92 40.96-17.92h322.56c15.36 0 30.72 7.68 40.96 17.92 10.24 12.8 15.36 28.16 12.8 43.52l-30.72 215.040 87.040-99.84c5.12-5.12 12.8-10.24 20.48-10.24s15.36 2.56 20.48 7.68l110.080 110.080c5.12 5.12 7.68 12.8 7.68 20.48s-2.56 15.36-10.24 20.48l-276.48 240.64zM811.52 890.88l66.56-66.56-248.32-217.6-35.84 35.84 217.6 248.32zM588.8 563.2c7.68-10.24 12.8-23.040 15.36-38.4l2.56-12.8-15.36-15.36-33.28 33.28 30.72 33.28zM542.72 596.48l-25.6-25.6-25.6 25.6c17.92 5.12 35.84 5.12 51.2 0zM478.72 532.48l-33.28-33.28-15.36 15.36 2.56 12.8c2.56 12.8 7.68 25.6 15.36 38.4l30.72-33.28zM158.72 824.32l66.56 66.56 217.6-248.32-35.84-35.84-248.32 217.6zM225.28 171.52l-66.56 66.56 248.32 217.6 35.84-35.84-217.6-248.32zM552.96-7.68h-71.68v99.84c0 20.48 15.36 35.84 35.84 35.84s35.84-15.36 35.84-35.84v-99.84zM675.84-7.68h-66.56v102.4c0 51.2-40.96 92.16-92.16 92.16s-92.16-40.96-92.16-92.16v-99.84h-66.56l40.96 294.4 102.4 117.76c10.24 10.24 10.24 28.16 0 38.4l-17.92 17.92 33.28 33.28 33.28-33.28-17.92-17.92c-10.24-10.24-10.24-25.6 0-38.4l102.4-117.76 40.96-296.96c0 0 0 0 0 0zM811.52 171.52l-217.6 248.32 35.84 35.84 248.32-217.6-66.56-66.56z" />
<glyph unicode="&#xe925;" glyph-name="opruimingnsale" d="M204.8 378.88l33.28-25.6 30.72 38.4v-122.88h40.96v120.32l33.28-40.96 33.28 25.6-87.040 110.080zM573.324 266.996l145.778 28.226 7.786-40.215-145.778-28.226-7.786 40.215zM921.6 739.84v2.56l-409.6 51.2h-5.12l-407.040-51.2-99.84-263.68 92.16 7.68v-271.36l419.84-99.84 414.72 99.84v271.36l97.28-7.68-102.4 261.12zM61.44 524.8l66.56 179.2 345.6 43.52-92.16-194.56-320-28.16zM491.52 161.28l-355.84 87.040v243.2l273.92 20.48 81.92 171.52v-522.24zM885.76 248.32l-353.28-84.48v512l76.8-163.84 273.92-23.040v-240.64zM637.44 552.96l-92.16 194.56 345.6-43.52 69.12-179.2-322.56 28.16z" />
<glyph unicode="&#xe926;" glyph-name="phone" d="M798.72 478.72c2.56 0 2.56 0 5.12 0 12.8 0 25.6 10.24 28.16 23.040 5.12 35.84 2.56 74.24-7.68 110.080-12.8 40.96-35.84 79.36-64 110.080-35.84 33.28-74.24 53.76-115.2 58.88-25.6 5.12-51.2 2.56-76.8-5.12-15.36-5.12-23.040-20.48-17.92-33.28 2.56-7.68 7.68-12.8 12.8-15.36 7.68-2.56 12.8-5.12 20.48-2.56 15.36 5.12 33.28 5.12 51.2 2.56 30.72-5.12 58.88-20.48 81.92-43.52s40.96-53.76 51.2-87.040c7.68-28.16 10.24-58.88 5.12-87.040 0-12.8 10.24-28.16 25.6-30.72zM988.16 678.4c-20.48 61.44-53.76 117.76-97.28 163.84-46.080 46.080-99.84 81.92-158.72 102.4-69.12 23.040-145.92 23.040-215.040 0-5.12-5.12-12.8-10.24-15.36-15.36-2.56-7.68-5.12-12.8-2.56-20.48s7.68-12.8 12.8-15.36c7.68-2.56 12.8-2.56 20.48-2.56 61.44 17.92 125.44 17.92 184.32 0 51.2-15.36 97.28-46.080 135.68-87.040s66.56-89.6 84.48-143.36c23.040-74.24 23.040-151.040 0-225.28-2.56-7.68-2.56-15.36 2.56-20.48 2.56-7.68 10.24-10.24 15.36-12.8 2.56 0 5.12-2.56 7.68-2.56 12.8 0 23.040 7.68 25.6 17.92 28.16 87.040 28.16 176.64 0 261.12zM737.28 371.2c-17.92 23.040-53.76 28.16-76.8 10.24l-71.68-56.32c-17.92-12.8-25.6-38.4-20.48-58.88-2.56 0-5.12 0-7.68-2.56-48.64-28.16-140.8 12.8-202.24 97.28-64 81.92-81.92 181.76-40.96 220.16 2.56 2.56 2.56 5.12 5.12 5.12 7.68-5.12 17.92-7.68 28.16-7.68 12.8 0 23.040 5.12 33.28 10.24l71.68 56.32c23.040 17.92 28.16 53.76 10.24 76.8l-161.28 209.92c-17.92 23.040-53.76 28.16-76.8 10.24l-74.24-51.2c-10.24-10.24-17.92-23.040-20.48-35.84 0-2.56 0-5.12 0-5.12-2.56 0-2.56 0-5.12 0-10.24 0-17.92-2.56-74.24-48.64-94.72-81.92-30.72-320 151.040-555.52 143.36-189.44 309.76-309.76 424.96-309.76 28.16 0 51.2 7.68 71.68 20.48 56.32 40.96 61.44 46.080 64 53.76 2.56 2.56 2.56 5.12 2.56 7.68 5.12 0 7.68-2.56 12.8-2.56 12.8 0 23.040 5.12 33.28 10.24l71.68 56.32c23.040 17.92 28.16 53.76 10.24 76.8l-158.72 212.48zM852.48 128l-74.24-56.32-161.28 209.92 71.68 56.32c0 0 0 0 0 0v0l163.84-209.92zM151.040 803.84l135.68-176.64c-2.56 0-5.12-2.56-7.68-5.12-61.44-61.44-46.080-186.88 35.84-294.4 58.88-76.8 140.8-125.44 209.92-125.44 23.040 0 46.080 5.12 64 17.92 2.56 2.56 5.12 2.56 7.68 5.12l133.12-174.080c-5.12-2.56-7.68-5.12-10.24-7.68s-10.24-7.68-51.2-40.96c-79.36-58.88-284.16 99.84-419.84 276.48s-232.96 414.72-158.72 476.16c38.4 30.72 48.64 38.4 48.64 38.4 5.12 2.56 10.24 5.12 12.8 10.24zM186.88 847.36l74.24 56.32 161.28-209.92-74.24-56.32-161.28 209.92z" />
<glyph unicode="&#xe927;" glyph-name="plaats" d="M517.12 727.040c-84.48 0-148.48-66.56-148.48-148.48 0-40.96 15.36-79.36 43.52-107.52s66.56-43.52 107.52-43.52c40.96 0 79.36 15.36 104.96 43.52 28.16 28.16 43.52 66.56 43.52 107.52 0 81.92-66.56 148.48-151.040 148.48zM578.56 517.12c-15.36-15.36-35.84-23.040-61.44-23.040-23.040 0-43.52 7.68-58.88 23.040s-23.040 35.84-23.040 58.88c0 48.64 35.84 84.48 84.48 84.48v0c48.64 0 84.48-35.84 84.48-84.48-2.56-23.040-10.24-43.52-25.6-58.88zM517.12 960c-212.48 0-384-161.28-384-360.96 0-79.36 10.24-140.8 66.56-222.72 43.52-66.56 248.32-345.6 289.28-401.92l28.16-38.4 28.16 38.4c40.96 56.32 245.76 335.36 289.28 401.92 53.76 81.92 66.56 143.36 66.56 222.72 0 199.68-171.52 360.96-384 360.96zM780.8 412.16c-35.84-56.32-194.56-271.36-263.68-366.080-69.12 94.72-225.28 309.76-263.68 366.080-46.080 69.12-53.76 117.76-53.76 186.88 0 163.84 143.36 296.96 317.44 296.96s317.44-133.12 317.44-296.96c0-69.12-7.68-117.76-53.76-186.88z" />
<glyph unicode="&#xe928;" glyph-name="plus" d="M473.6 960h76.8v-1024h-76.8v1024zM0 486.4h1024v-76.8h-1024v76.8z" />
<glyph unicode="&#xe929;" glyph-name="rondreizen" d="M1018.88 468.48l-168.96 212.48c-10.24 12.8-28.16 12.8-38.4 0l-168.96-212.48c-5.12-7.68-7.68-17.92-2.56-25.6s12.8-12.8 23.040-12.8h58.88c-2.56-74.24-17.92-140.8-38.4-197.12-46.080 17.92-94.72 30.72-145.92 33.28v163.84h81.92v48.64h-81.92v163.84c46.080 2.56 92.16 12.8 133.12 28.16 7.68-23.040 12.8-46.080 17.92-71.68l48.64 7.68c-5.12 30.72-12.8 56.32-20.48 81.92 28.16 15.36 53.76 30.72 74.24 51.2 7.68-7.68 15.36-15.36 23.040-23.040l35.84 33.28c-87.040 97.28-209.92 153.6-337.92 153.6v0c0 0 0 0 0 0-250.88 0-435.2-176.64-448-424.96h-38.4c-10.24 0-17.92-5.12-23.040-12.8s-2.56-17.92 2.56-25.6l168.96-212.48c5.12-5.12 12.8-10.24 20.48-10.24s15.36 2.56 17.92 10.24l168.96 212.48c5.12 7.68 7.68 17.92 2.56 25.6s-12.8 12.8-23.040 12.8h-58.88c2.56 74.24 17.92 140.8 38.4 197.12 46.080-17.92 94.72-30.72 145.92-33.28v-163.84h-81.92v-48.64h81.92v-163.84c-46.080-2.56-92.16-12.8-133.12-28.16-7.68 23.040-12.8 46.080-17.92 71.68l-48.64-7.68c5.12-30.72 12.8-56.32 20.48-81.92-28.16-15.36-53.76-30.72-74.24-51.2-7.68 7.68-15.36 15.36-23.040 23.040l-35.84-33.28c84.48-97.28 207.36-151.040 335.36-151.040v0c0 0 0 0 0 0 250.88 0 435.2 176.64 448 424.96h40.96c10.24 0 17.92 5.12 23.040 12.8s2.56 17.92-2.56 23.040zM752.64 773.12c-17.92-12.8-35.84-25.6-56.32-38.4-15.36 38.4-33.28 71.68-56.32 97.28 40.96-12.8 79.36-33.28 112.64-58.88zM537.6 849.92c43.52-12.8 87.040-61.44 115.2-133.12-35.84-12.8-74.24-20.48-115.2-23.040v156.16zM271.36 135.68c17.92 12.8 35.84 25.6 56.32 38.4 15.36-38.4 35.84-69.12 56.32-97.28-40.96 12.8-79.36 33.28-112.64 58.88zM486.4 58.88c-43.52 12.8-87.040 61.44-115.2 133.12 35.84 12.8 74.24 20.48 115.2 23.040v-156.16zM253.44 455.68c0-12.8 10.24-25.6 25.6-25.6h33.28l-117.76-148.48-117.76 148.48h12.8c12.8 0 25.6 10.24 25.6 25.6 0 184.32 107.52 327.68 266.24 378.88-76.8-81.92-128-225.28-128-378.88zM486.4 691.2c-43.52 2.56-87.040 12.8-125.44 28.16 35.84 69.12 81.92 117.76 125.44 130.56v-158.72zM537.6 58.88v158.72c43.52-2.56 87.040-12.8 125.44-28.16-35.84-71.68-81.92-117.76-125.44-130.56zM936.96 478.72c-12.8 0-25.6-10.24-25.6-25.6 0-184.32-107.52-327.68-266.24-378.88 74.24 81.92 125.44 222.72 125.44 378.88 0 12.8-10.24 25.6-25.6 25.6h-33.28l117.76 148.48 117.76-148.48h-10.24z" />
<glyph unicode="&#xe92a;" glyph-name="sadsmile" d="M512 960c-281.6 0-512-230.4-512-512s230.4-512 512-512 512 230.4 512 512-230.4 512-512 512zM512-2.56c-248.32 0-450.56 202.24-450.56 450.56s202.24 450.56 450.56 450.56 450.56-202.24 450.56-450.56-202.24-450.56-450.56-450.56zM512 373.76c-104.96 0-204.8-51.2-266.24-138.24-10.24-12.8-5.12-33.28 7.68-43.52s33.28-5.12 43.52 7.68c48.64 71.68 130.56 112.64 215.040 112.64s166.4-40.96 215.040-112.64c5.12-7.68 15.36-12.8 25.6-12.8 5.12 0 12.8 2.56 17.92 5.12 12.8 10.24 17.92 28.16 7.68 43.52-61.44 87.040-161.28 138.24-266.24 138.24zM729.6 532.48c0-28.277-22.923-51.2-51.2-51.2s-51.2 22.923-51.2 51.2c0 28.277 22.923 51.2 51.2 51.2s51.2-22.923 51.2-51.2zM396.8 532.48c0-28.277-22.923-51.2-51.2-51.2s-51.2 22.923-51.2 51.2c0 28.277 22.923 51.2 51.2 51.2s51.2-22.923 51.2-51.2z" />
<glyph unicode="&#xe92b;" glyph-name="search" d="M606.72 960c-225.28 0-409.6-184.32-409.6-412.16 0-99.84 35.84-192 97.28-263.68l-289.28-289.28 58.88-58.88 289.28 289.28c69.12-56.32 158.72-87.040 253.44-87.040 227.84 0 412.16 184.32 412.16 412.16 0 225.28-184.32 409.6-412.16 409.6zM606.72 220.16c-181.76 0-327.68 145.92-327.68 327.68s145.92 327.68 327.68 327.68c181.76 0 327.68-145.92 327.68-327.68 0-179.2-145.92-327.68-327.68-327.68z" />
<glyph unicode="&#xe92c;" glyph-name="shoppen" d="M944.64 698.88c-2.56 35.84-28.16 64-64 64h-179.2v7.68c0 104.96-84.48 189.44-189.44 189.44s-189.44-84.48-189.44-189.44v-10.24h-181.76c-35.84 0-64-25.6-64-64l-38.4-696.32c0-15.36 5.12-33.28 15.36-46.080 12.8-10.24 30.72-17.92 46.080-17.92h816.64c17.92 0 35.84 7.68 48.64 20.48 10.24 12.8 17.92 28.16 15.36 46.080l-35.84 696.32zM678.4 624.64c10.24 0 20.48-10.24 20.48-20.48s-10.24-20.48-20.48-20.48c-10.24 0-20.48 10.24-20.48 20.48s7.68 20.48 20.48 20.48zM373.76 770.56c0 74.24 61.44 135.68 135.68 135.68s135.68-61.44 135.68-135.68v-10.24h-271.36v10.24zM340.48 624.64c10.24 0 20.48-10.24 20.48-20.48s-10.24-20.48-20.48-20.48c-10.24 0-20.48 10.24-20.48 20.48s10.24 20.48 20.48 20.48zM926.72-7.68c-2.56-2.56-5.12-2.56-7.68-2.56h-819.2c-2.56 0-7.68 2.56-10.24 5.12 0 2.56-2.56 2.56-2.56 5.12l38.4 696.32c0 5.12 5.12 12.8 12.8 12.8h179.2v-33.28c-28.16-7.68-53.76-38.4-53.76-71.68 0-40.96 33.28-74.24 74.24-74.24s74.24 33.28 74.24 74.24c0 28.16-17.92 56.32-43.52 66.56v38.4h273.92v-38.4c-23.040-10.24-43.52-38.4-43.52-66.56 0-40.96 33.28-74.24 74.24-74.24s74.24 33.28 74.24 74.24c0 35.84-20.48 61.44-53.76 71.68v33.28h181.76c7.68 0 10.24-7.68 12.8-12.8l38.4-696.32c2.56-2.56 2.56-5.12 0-7.68z" />
<glyph unicode="&#xe92d;" glyph-name="smile" d="M512 960c-281.6 0-512-230.4-512-512s230.4-512 512-512 512 230.4 512 512-230.4 512-512 512zM512-2.56c-248.32 0-450.56 202.24-450.56 450.56s202.24 450.56 450.56 450.56 450.56-202.24 450.56-450.56-202.24-450.56-450.56-450.56zM806.4 414.72h-588.8c-17.92 0-30.72-12.8-30.72-30.72 0-179.2 145.92-322.56 322.56-322.56s322.56 145.92 322.56 322.56c2.56 17.92-10.24 30.72-25.6 30.72zM773.12 355.84c-15.36-130.56-128-232.96-261.12-232.96s-245.76 102.4-261.12 232.96h522.24zM281.6 501.76c17.92 0 30.72 12.8 30.72 30.72s15.36 33.28 33.28 33.28c17.92 0 33.28-15.36 33.28-33.28s12.8-30.72 30.72-30.72c17.92 0 30.72 12.8 30.72 30.72 0 51.2-40.96 92.16-92.16 92.16s-92.16-40.96-92.16-92.16c-5.12-17.92 7.68-30.72 25.6-30.72zM616.96 501.76c17.92 0 30.72 12.8 30.72 30.72s15.36 33.28 33.28 33.28c17.92 0 33.28-15.36 33.28-33.28s12.8-30.72 30.72-30.72c17.92 0 30.72 12.8 30.72 30.72 0 51.2-40.96 92.16-92.16 92.16s-92.16-40.96-92.16-92.16c-5.12-17.92 7.68-30.72 25.6-30.72z" />
<glyph unicode="&#xe92e;" glyph-name="stedentrips" d="M998.4 17.92h-972.8c-15.36 0-25.6-12.8-25.6-25.6s12.8-25.6 25.6-25.6h972.8c15.36 0 25.6 12.8 25.6 25.6s-12.8 25.6-25.6 25.6zM394.24 573.44c0 15.36-12.8 25.6-25.6 25.6s-25.6-12.8-25.6-25.6v-58.88c0-15.36 12.8-25.6 25.6-25.6s25.6 12.8 25.6 25.6v58.88zM281.6 573.44c0 15.36-12.8 25.6-25.6 25.6s-25.6-12.8-25.6-25.6v-58.88c0-15.36 12.8-25.6 25.6-25.6s25.6 12.8 25.6 25.6v58.88zM394.24 389.12c0 15.36-12.8 25.6-25.6 25.6s-25.6-12.8-25.6-25.6v-58.88c0-15.36 12.8-25.6 25.6-25.6s25.6 12.8 25.6 25.6v58.88zM281.6 389.12c0 15.36-12.8 25.6-25.6 25.6s-25.6-12.8-25.6-25.6v-58.88c0-15.36 12.8-25.6 25.6-25.6s25.6 12.8 25.6 25.6v58.88zM368.64 232.96c-15.36 0-25.6-12.8-25.6-25.6v-58.88c0-15.36 12.8-25.6 25.6-25.6s25.6 12.8 25.6 25.6v58.88c0 15.36-10.24 25.6-25.6 25.6zM253.44 232.96c-15.36 0-25.6-12.8-25.6-25.6v-58.88c0-15.36 12.8-25.6 25.6-25.6s25.6 12.8 25.6 25.6v58.88c2.56 15.36-7.68 25.6-25.6 25.6zM133.12 38.4c15.36 0 25.6 12.8 25.6 25.6v614.4l302.080 181.76v-798.72c0-15.36 12.8-25.6 25.6-25.6 15.36 0 25.6 12.8 25.6 25.6v847.36c0 10.24-5.12 17.92-12.8 23.040s-17.92 5.12-25.6 0l-353.28-212.48c-7.68-5.12-12.8-15.36-12.8-25.6v-629.76c0-15.36 10.24-25.6 25.6-25.6zM668.16 389.12c0 15.36-12.8 25.6-25.6 25.6-15.36 0-25.6-12.8-25.6-25.6v-58.88c0-15.36 12.8-25.6 25.6-25.6 15.36 0 25.6 12.8 25.6 25.6v58.88zM783.36 389.12c0 15.36-12.8 25.6-25.6 25.6-15.36 0-25.6-12.8-25.6-25.6v-58.88c0-15.36 12.8-25.6 25.6-25.6 15.36 0 25.6 12.8 25.6 25.6v58.88zM640 232.96c-15.36 0-25.6-12.8-25.6-25.6v-58.88c0-15.36 12.8-25.6 25.6-25.6 15.36 0 25.6 12.8 25.6 25.6v58.88c2.56 15.36-10.24 25.6-25.6 25.6zM755.2 232.96c-15.36 0-25.6-12.8-25.6-25.6v-58.88c0-15.36 12.8-25.6 25.6-25.6 15.36 0 25.6 12.8 25.6 25.6v58.88c2.56 15.36-10.24 25.6-25.6 25.6zM568.32 591.36l296.96-179.2v-348.16c0-15.36 12.8-25.6 25.6-25.6 15.36 0 25.6 12.8 25.6 25.6v366.080c0 10.24-5.12 17.92-12.8 23.040l-309.76 186.88c-5.12 2.56-12.8 5.12-20.48 2.56s-12.8-5.12-15.36-12.8c-2.56-5.12-5.12-12.8-2.56-20.48 0-10.24 2.56-12.8 12.8-17.92z" />
<glyph unicode="&#xe92f;" glyph-name="streek" d="M522.24 727.040c-84.48 0-148.48-66.56-148.48-148.48 0-40.96 15.36-79.36 43.52-107.52s66.56-43.52 107.52-43.52c40.96 0 79.36 15.36 104.96 43.52 28.16 28.16 43.52 66.56 43.52 107.52-2.56 81.92-66.56 148.48-151.040 148.48zM581.12 517.12c-15.36-15.36-35.84-23.040-61.44-23.040-23.040 0-43.52 7.68-58.88 23.040s-23.040 35.84-23.040 58.88c0 48.64 35.84 84.48 84.48 84.48v0c48.64 0 84.48-35.84 84.48-84.48 0-23.040-10.24-43.52-25.6-58.88zM522.24 960c-212.48 0-384-161.28-384-360.96 0-79.36 10.24-140.8 66.56-222.72 43.52-66.56 248.32-345.6 289.28-401.92l28.16-38.4 28.16 38.4c40.96 56.32 245.76 335.36 289.28 401.92 53.76 81.92 66.56 143.36 66.56 222.72 0 199.68-174.080 360.96-384 360.96zM785.92 412.16c-35.84-56.32-194.56-271.36-263.68-366.080-69.12 94.72-225.28 309.76-263.68 366.080-46.080 69.12-53.76 117.76-53.76 186.88 0 161.28 140.8 294.4 317.44 294.4s317.44-133.12 317.44-296.96c0-66.56-7.68-115.2-53.76-184.32z" />
<glyph unicode="&#xe930;" glyph-name="themaparken" d="M893.44-7.68l-107.52 145.92c53.76 23.040 89.6 76.8 89.6 135.68v258.56c0 48.64-38.4 87.040-87.040 87.040h-148.48c2.56 7.68 7.68 12.8 12.8 17.92l207.36 207.36c5.12 7.68 10.24 17.92 10.24 28.16s-5.12 20.48-12.8 28.16l-17.92 17.92c-15.36 15.36-40.96 15.36-56.32 0l-125.44-125.44c0 7.68 2.56 15.36 2.56 23.040 0 79.36-64 143.36-143.36 143.36s-143.36-64-143.36-143.36c0-7.68 0-15.36 2.56-23.040l-125.44 125.44c-15.36 15.36-40.96 15.36-56.32 0l-15.36-17.92c-7.68-7.68-12.8-17.92-12.8-28.16s5.12-20.48 12.8-28.16l207.36-207.36c5.12-5.12 10.24-10.24 12.8-17.92h-161.28c-48.64 0-87.040-38.4-87.040-87.040v-258.56c0-58.88 35.84-112.64 89.6-135.68l-107.52-145.92c-7.68-10.24-7.68-25.6-2.56-35.84 5.12-12.8 17.92-20.48 30.72-20.48h61.44c12.8 0 25.6 7.68 30.72 17.92l20.48 35.84h476.16l17.92-33.28c7.68-12.8 17.92-17.92 33.28-17.92h61.44c12.8 0 25.6 7.68 30.72 17.92 7.68 10.24 7.68 25.6 0 35.84zM256 15.36l-12.8 7.68-23.040-40.96h-40.96l107.52 145.92c5.12 0 10.24 0 15.36 0v0l-56.32-104.96 10.24-7.68zM238.080 576h163.84l-17.92-87.040-74.24-15.36c-5.12-2.56-12.8-2.56-20.48-2.56s-12.8 0-20.48 0h-7.68c-2.56 0-2.56 0-5.12 0l-7.68 2.56c-2.56 0-2.56 0-5.12 0 0 0-2.56 0-2.56 0l-5.12 2.56c-2.56 0-2.56 0-5.12 2.56l-7.68 2.56c-2.56 0-2.56 2.56-5.12 2.56l-7.68 5.12c-2.56 0-2.56 2.56-5.12 2.56l-2.56 7.68c-2.56 0-2.56 2.56-5.12 2.56l-5.12 5.12v28.16c2.56 23.040 23.040 40.96 46.080 40.96zM448 686.080c12.8 2.56 20.48 12.8 23.040 25.6 2.56 7.68-2.56 17.92-10.24 23.040-28.16 17.92-43.52 48.64-43.52 81.92 0 56.32 43.52 99.84 99.84 99.84s99.84-46.080 99.84-99.84c0-33.28-15.36-64-43.52-81.92-7.68-5.12-10.24-15.36-7.68-23.040 2.56-12.8 10.24-23.040 23.040-25.6s25.6 0 33.28 7.68l192 192 12.8-12.8-204.8-204.8c-17.92-17.92-30.72-43.52-30.72-69.12 0-7.68 0-17.92 2.56-25.6l15.36-74.24-28.16 7.68c-20.48 5.12-43.52 7.68-66.56 7.68s-46.080-2.56-66.56-7.68l-15.36-2.56 15.36 71.68c2.56 7.68 2.56 17.92 2.56 25.6-2.56 25.6-12.8 51.2-30.72 69.12l-204.8 204.8 12.8 12.8 192-192c2.56-10.24 15.36-15.36 28.16-10.24zM826.88 465.92v0 0c0 0 0 0 0 0zM832 506.88v0c-2.56-2.56-2.56-5.12-5.12-5.12 0 0-2.56-2.56-2.56-2.56l-5.12-5.12c-2.56 0-2.56-2.56-5.12-5.12l-5.12-2.56c-2.56 0-2.56-2.56-7.68-2.56l-7.68-2.56c-2.56 0-2.56-2.56-5.12-2.56l-7.68-2.56c-2.56 0-2.56 0-5.12-2.56l-7.68-2.56c-2.56 0-5.12 0-7.68-2.56h-5.12c-7.68 0-17.92 0-28.16 0-5.12 0-10.24 2.56-12.8 2.56l-64 15.36-15.36 89.6h153.6c23.040 0 43.52-20.48 43.52-43.52v-25.6zM194.56 450.56v0c7.68-5.12 15.36-7.68 23.040-12.8l5.12-2.56c7.68-2.56 17.92-5.12 25.6-7.68h5.12c15.36-2.56 28.16-2.56 43.52-2.56 7.68 0 15.36 2.56 23.040 2.56l138.24 33.28c10.24 2.56 17.92 2.56 28.16 5.12 28.16 2.56 58.88 2.56 84.48-5.12l138.24-33.28c5.12-2.56 12.8-2.56 17.92-2.56 15.36-2.56 28.16-2.56 48.64 2.56h2.56c7.68 2.56 17.92 5.12 25.6 7.68l5.12 2.56c7.68 2.56 15.36 7.68 23.040 12.8v0-176.64c0-58.88-46.080-104.96-104.96-104.96h-424.96c-58.88 0-104.96 46.080-104.96 104.96v176.64zM727.040 33.28v0zM322.56 76.8l28.16 48.64h325.12l28.16-48.64h-381.44zM724.48 125.44v0c5.12 0 10.24 0 15.36 0l107.52-145.92h-40.96l-81.92 145.92z" />
<glyph unicode="&#xe931;" glyph-name="themas" d="M540.16 112.64c-7.68-25.6-23.040-46.080-43.52-69.12-209.92 30.72-363.52 189.44-440.32 460.8 64 51.2 148.48 97.28 238.080 125.44h2.56l-15.36 48.64h-2.56c-102.4-33.28-197.12-84.48-266.24-145.92l-12.8-10.24 5.12-15.36c84.48-307.2 256-483.84 499.2-514.56l12.8-2.56 7.68 7.68c30.72 30.72 51.2 61.44 64 97.28v2.56l-48.64 17.92v-2.56zM217.6 325.12l-40.96-12.8v-2.56c7.68-23.040 30.72-35.84 64-35.84 15.36 0 30.72 2.56 46.080 7.68 38.4 12.8 71.68 43.52 74.24 69.12v2.56l-48.64 5.12v-2.56c-2.56-2.56-15.36-20.48-40.96-28.16s-46.080-5.12-48.64-2.56zM1021.44 816.64v15.36l-15.36 5.12c-99.84 40.96-222.72 66.56-332.8 66.56s-230.4-25.6-332.8-66.56l-12.8-5.12v-15.36c-25.6-394.24 74.24-606.72 335.36-734.72l10.24-5.12 10.24 5.12c263.68 128 360.96 340.48 337.92 734.72zM673.28 133.12c-168.96 84.48-322.56 222.72-299.52 665.6 92.16 35.84 199.68 56.32 299.52 56.32 97.28 0 207.36-20.48 299.52-56.32 12.8-263.68-12.8-524.8-299.52-665.6zM514.56 412.16l-10.24-12.8c-12.8-12.8-5.12-30.72-2.56-35.84 15.36-35.84 84.48-133.12 171.52-133.12s156.16 97.28 171.52 133.12c2.56 5.12 10.24 23.040-2.56 35.84l-12.8 12.8-15.36-5.12c-30.72-12.8-81.92-17.92-140.8-20.48-61.44 2.56-110.080 7.68-143.36 20.48l-15.36 5.12zM568.32 345.6c30.72-5.12 64-7.68 104.96-7.68 38.4 0 74.24 5.12 102.4 7.68-17.92-23.040-58.88-66.56-104.96-66.56-43.52 0-84.48 46.080-102.4 66.56zM739.84 535.040c0 17.92 23.040 40.96 61.44 40.96 46.080 0 81.92-33.28 81.92-40.96v-2.56h48.64v2.56c0 43.52-69.12 89.6-133.12 89.6-69.12 0-110.080-46.080-110.080-89.6v-2.56h48.64v2.56zM604.16 535.040v-2.56h48.64v2.56c0 43.52-40.96 89.6-110.080 89.6-64 0-133.12-46.080-133.12-89.6v-2.56h48.64v2.56c0 7.68 38.4 40.96 81.92 40.96 40.96-2.56 64-23.040 64-40.96z" />
<glyph unicode="&#xe932;" glyph-name="tipvandedag" d="M1003.52 368.64c0 23.040-7.68 43.52-20.48 64-2.56 5.12-2.56 10.24 2.56 12.8 25.6 20.48 38.4 51.2 38.4 84.48 0 61.44-48.64 110.080-110.080 110.080h-156.16c12.8 35.84 25.6 81.92 25.6 130.56 0 87.040-33.28 189.44-130.56 189.44-61.44 0-84.48-38.4-84.48-69.12-5.12-158.72-71.68-215.040-71.68-217.6l-248.32-176.64c-10.24 12.8-28.16 23.040-46.080 23.040h-140.8c-33.28 0-61.44-28.16-61.44-61.44v-460.8c0-33.28 28.16-61.44 61.44-61.44h140.8c33.28 0 61.44 28.16 61.44 61.44v5.12c64-25.6 176.64-64 291.84-64h40.96c209.92 0 350.72 61.44 350.72 151.040 0 7.68 0 15.36-2.56 23.040 0 5.12 0 7.68 2.56 10.24 25.6 20.48 40.96 51.2 40.96 84.48 0 23.040-7.68 43.52-20.48 64-2.56 5.12-2.56 10.24 2.56 12.8 20.48 20.48 33.28 51.2 33.28 84.48zM199.68-2.56h-138.24v460.8h140.8v-460.8zM947.2 488.96c-28.16-23.040-33.28-64-12.8-94.72 5.12-7.68 10.24-17.92 10.24-28.16 0-15.36-7.68-28.16-17.92-38.4-28.16-23.040-33.28-64-12.8-94.72 5.12-7.68 10.24-17.92 10.24-28.16 0-15.36-7.68-28.16-17.92-38.4-23.040-17.92-30.72-48.64-23.040-74.24 0-2.56 0-2.56 0-5.12 0-35.84-102.4-89.6-291.84-89.6h-40.96c-122.88 0-248.32 51.2-291.84 69.12v366.080l268.8 192c2.56 2.56 92.16 71.68 97.28 263.68 0 2.56 0 10.24 25.6 10.24 69.12 0 69.12-117.76 69.12-130.56 0-71.68-35.84-143.36-35.84-145.92-5.12-10.24-5.12-20.48 2.56-28.16 5.12-7.68 15.36-15.36 25.6-15.36h199.68c28.16 0 51.2-23.040 51.2-51.2 0-12.8-5.12-28.16-15.36-38.4z" />
<glyph unicode="&#xe933;" glyph-name="tuinnklussen" d="M322.56 286.72c43.52-12.8 122.88-15.36 125.44-15.36h130.56c23.040 0 46.080-15.36 46.080-35.84s-20.48-35.84-46.080-35.84h-181.76v-48.64h181.76c51.2 0 94.72 38.4 94.72 87.040 0 46.080-40.96 87.040-94.72 87.040h-130.56c-20.48 0-84.48 2.56-112.64 12.8-5.12 0-99.84 30.72-184.32-25.6l-151.040-145.92 33.28-35.84 148.48 135.68c64 43.52 140.8 20.48 140.8 20.48zM870.4 376.32l-163.84-87.040c7.68-15.36 12.8-30.72 12.8-48.64l176.64 92.16c20.48 10.24 43.52 7.68 53.76-7.68 10.24-17.92 0-40.96-20.48-51.2l-358.4-192h-33.28l-312.32-10.24c-5.12-2.56-51.2-15.36-104.96-79.36l35.84-30.72c38.4 43.52 71.68 58.88 81.92 64l335.36 7.68c10.24 0 17.92 5.12 20.48 7.68l355.84 192c43.52 23.040 64 79.36 40.96 120.32-20.48 35.84-76.8 48.64-120.32 23.040zM993.28 849.92c-2.56 0-92.16 12.8-184.32 12.8-74.24 0-125.44-7.68-161.28-20.48-76.8-30.72-107.52-81.92-117.76-117.76-15.36-46.080-12.8-102.4 10.24-148.48-10.24-7.68-35.84-28.16-61.44-53.76-12.8 64-30.72 110.080-46.080 143.36 7.68 10.24 12.8 25.6 15.36 43.52 5.12 38.4-7.68 97.28-46.080 135.68-61.44 64-133.12 81.92-135.68 84.48l-25.6 2.56-7.68-25.6c0-2.56-20.48-71.68 7.68-161.28 20.48-64 81.92-112.64 133.12-112.64 5.12 0 7.68 0 12.8 0 23.040-51.2 51.2-135.68 64-268.8h48.64c-2.56 28.16-5.12 58.88-10.24 84.48v0c17.92 33.28 58.88 69.12 74.24 81.92 35.84-46.080 89.6-76.8 143.36-76.8 46.080 0 97.28 20.48 140.8 61.44 87.040 76.8 158.72 294.4 163.84 302.080l12.8 25.6-30.72 7.68zM394.24 709.12c-2.56-15.36-7.68-23.040-10.24-25.6s-7.68-2.56-10.24-2.56c-28.16 0-71.68 33.28-87.040 79.36-15.36 43.52-15.36 81.92-12.8 104.96 23.040-10.24 58.88-28.16 89.6-61.44 25.6-25.6 33.28-66.56 30.72-94.72zM816.64 550.4c-35.84-30.72-74.24-46.080-107.52-46.080-38.4 0-76.8 20.48-104.96 53.76l48.64 28.16 79.36-38.4c2.56-2.56 7.68-2.56 10.24-2.56 7.68 0 17.92 5.12 20.48 12.8 5.12 12.8 0 25.6-10.24 33.28l-51.2 25.6 161.28 99.84c10.24 7.68 15.36 23.040 7.68 33.28s-23.040 15.36-33.28 7.68l-81.92-48.64v30.72c0 12.8-10.24 25.6-23.040 25.6s-25.6-10.24-25.6-23.040l-2.56-64-125.44-79.36c-12.8 33.28-15.36 71.68-5.12 102.4 12.8 38.4 43.52 71.68 92.16 89.6 28.16 12.8 79.36 17.92 143.36 17.92 58.88 0 112.64-5.12 145.92-7.68-23.040-58.88-76.8-199.68-138.24-250.88z" />
<glyph unicode="&#xe934;" glyph-name="twitter" d="M322.56 28.16c386.56 0 596.48 320 596.48 596.48 0 10.24 0 17.92 0 28.16 40.96 30.72 76.8 66.56 104.96 107.52-38.4-17.92-79.36-28.16-120.32-33.28 43.52 25.6 76.8 66.56 92.16 115.2-40.96-23.040-84.48-40.96-133.12-51.2-38.4 40.96-92.16 66.56-153.6 66.56-115.2 0-209.92-94.72-209.92-209.92 0-15.36 2.56-33.28 5.12-48.64-174.080 7.68-330.24 92.16-432.64 220.16-17.92-28.16-28.16-64-28.16-102.4 0-71.68 35.84-138.24 94.72-174.080-33.28 0-66.56 10.24-94.72 25.6 0 0 0-2.56 0-2.56 0-102.4 71.68-186.88 168.96-204.8-17.92-5.12-35.84-7.68-56.32-7.68-12.8 0-25.6 2.56-38.4 2.56 25.6-84.48 104.96-143.36 197.12-145.92-76.8-56.32-166.4-89.6-263.68-89.6-17.92 0-33.28 0-51.2 2.56 92.16-58.88 202.24-94.72 322.56-94.72z" />
<glyph unicode="&#xe935;" glyph-name="uniekovernachten" d="M207.36 317.44c0 12.8-10.24 23.040-23.040 23.040s-23.040-10.24-23.040-23.040v-53.76h48.64v53.76zM158.72 171.52v-53.76h48.64v53.76c0 12.8-10.24 23.040-23.040 23.040s-25.6-7.68-25.6-23.040zM867.84 317.44c0 12.8-10.24 23.040-23.040 23.040s-23.040-10.24-23.040-23.040v-53.76h48.64v53.76zM821.76 117.76h48.64v53.76c0 12.8-10.24 23.040-23.040 23.040s-23.040-10.24-23.040-23.040v-53.76zM588.8 506.88c0 51.2-38.4 76.8-74.24 76.8s-71.68-25.6-71.68-74.24v-120.32h145.92v117.76zM488.96 437.76v71.68c0 20.48 12.8 28.16 25.6 28.16s25.6-7.68 25.6-28.16v-71.68h-51.2zM514.56 312.32c-38.4 0-79.36-28.16-79.36-81.92v-133.12h161.28v130.56c-2.56 56.32-43.52 84.48-81.92 84.48zM481.28 145.92v84.48c0 25.6 17.92 33.28 30.72 33.28 15.36 0 33.28-10.24 33.28-35.84v-84.48h-64zM972.8 10.24v417.28h7.68l38.4 38.4v171.52h-122.88v-69.12h-25.6v69.12h-89.6v-48.64h43.52v-69.12h122.88v69.12h25.6v-102.4l-10.24-10.24h-145.92v-48.64h110.080v-417.28h-179.2v665.6h15.36l51.2 51.2v209.92h-153.6v-97.28h-53.76v97.28h-186.88v-97.28h-53.76v97.28h-153.6v-209.92l51.2-51.2h17.92v-665.6h-179.2v417.28h110.080v48.64h-145.92l-10.24 10.24v102.4h25.6v-69.12h122.88v69.12h43.52v48.64h-92.16v-69.12h-25.6v69.12h-122.88v-171.52l38.4-38.4h7.68v-417.28h-53.76v-48.64h1024v48.64h-51.2zM698.88 675.84v-665.6h-371.2v665.6h268.8v48.64h-312.32l-23.040 23.040v140.8h58.88v-97.28h148.48v97.28h92.16v-97.28h148.48v97.28h58.88v-140.8l-23.040-23.040h-94.72v-48.64h48.64z" />
<glyph unicode="&#xe936;" glyph-name="user" d="M512 960c-281.6 0-512-230.4-512-512s230.4-512 512-512 512 230.4 512 512-230.4 512-512 512zM442.88 304.64v43.52c0 7.68-2.56 15.36-7.68 20.48-2.56 2.56-12.8 30.72-17.92 71.68 0 7.68-5.12 17.92-12.8 23.040-5.12 2.56-12.8 5.12-17.92 5.12-5.12 2.56-15.36 15.36-17.92 33.28-2.56 15.36 0 28.16 2.56 33.28 20.48 7.68 20.48 25.6 17.92 51.2h-5.12l5.12 2.56c-2.56 20.48-2.56 58.88-2.56 84.48 0 30.72 2.56 46.080 5.12 51.2 30.72 0 51.2 10.24 71.68 17.92 17.92 7.68 35.84 15.36 61.44 15.36 51.2 0 58.88-10.24 61.44-17.92 5.12-10.24 15.36-15.36 25.6-15.36 12.8 0 30.72 0 30.72-51.2 0-15.36-2.56-46.080-2.56-69.12-2.56-48.64-5.12-61.44 17.92-69.12 2.56-5.12 5.12-15.36 2.56-33.28-5.12-17.92-12.8-28.16-17.92-33.28v0c-5.12 0-12.8-2.56-17.92-5.12-7.68-5.12-12.8-12.8-12.8-23.040-5.12-38.4-15.36-66.56-17.92-69.12-5.12-5.12-10.24-12.8-10.24-23.040v-43.52c0-35.84 5.12-56.32 33.28-71.68-28.16-23.040-64-33.28-99.84-33.28s-71.68 12.8-99.84 33.28c20.48 17.92 25.6 38.4 25.6 71.68zM642.56 337.92c10.24 20.48 17.92 48.64 23.040 74.24 0 0 2.56 0 2.56 2.56 23.040 12.8 40.96 43.52 48.64 74.24 7.68 35.84 0 71.68-17.92 92.16 0 5.12 0 12.8 0 20.48 2.56 23.040 2.56 53.76 2.56 71.68 0 84.48-40.96 107.52-76.8 112.64-20.48 23.040-53.76 33.28-104.96 33.28-35.84 0-61.44-10.24-84.48-20.48-17.92-7.68-35.84-12.8-56.32-12.8-12.8 0-40.96-5.12-53.76-48.64-5.12-15.36-7.68-38.4-7.68-66.56 0-30.72 2.56-69.12 5.12-92.16v-2.56c-17.92-20.48-25.6-56.32-17.92-92.16 7.68-30.72 25.6-58.88 48.64-74.24 0 0 2.56 0 2.56-2.56 5.12-23.040 10.24-53.76 23.040-74.24v-33.28c0-20.48 0-20.48-23.040-28.16-117.76-40.96-176.64-69.12-209.92-94.72-56.32 76.8-87.040 168.96-87.040 266.24 0 248.32 202.24 450.56 450.56 450.56s450.56-202.24 450.56-450.56c0-97.28-30.72-189.44-87.040-266.24-33.28 28.16-92.16 53.76-209.92 94.72-23.040 7.68-23.040 7.68-23.040 28.16v38.4zM345.6 207.36c43.52-46.080 102.4-69.12 166.4-69.12s122.88 25.6 166.4 69.12c84.48-30.72 135.68-53.76 158.72-71.68-84.48-87.040-202.24-138.24-325.12-138.24-120.32 0-238.080 51.2-325.12 138.24 25.6 17.92 74.24 40.96 158.72 71.68z" />
<glyph unicode="&#xe937;" glyph-name="vliegtickets" d="M1008.64 944.64c-48.64 48.64-176.64-25.6-209.92-58.88l-184.32-184.32-555.52 112.64c-7.68 0-15.36 0-20.48-5.12s-7.68-12.8-7.68-17.92v-58.88c0-10.24 5.12-17.92 12.8-20.48l248.32-130.56 99.84-99.84-112.64-112.64c-5.12-5.12-12.8-15.36-23.040-28.16l-199.68 25.6c-10.24 0-20.48-5.12-25.6-12.8l-25.6-56.32c-5.12-10.24 0-23.040 10.24-30.72l133.12-79.36c-35.84-64-40.96-99.84-20.48-120.32 7.68-7.68 17.92-12.8 30.72-12.8 20.48 0 51.2 10.24 89.6 33.28l79.36-133.12c5.12-7.68 12.8-12.8 20.48-12.8 2.56 0 7.68 0 10.24 2.56l56.32 25.6c10.24 5.12 15.36 15.36 12.8 25.6l-25.6 199.68c12.8 10.24 20.48 17.92 28.16 23.040l112.64 112.64 99.84-99.84 130.56-248.32c5.12-7.68 12.8-12.8 20.48-12.8 0 0 0 0 0 0h58.88c7.68 0 12.8 2.56 17.92 10.24 5.12 5.12 5.12 12.8 5.12 20.48l-110.080 550.4 184.32 184.32c33.28 33.28 107.52 161.28 58.88 209.92zM320 614.4c-2.56 2.56-2.56 2.56-5.12 5.12l-238.080 125.44v15.36l496.64-99.84-148.48-148.48-104.96 102.4zM53.76 291.84l10.24 20.48 153.6-20.48c-15.36-20.48-30.72-43.52-46.080-66.56 0 0 0-2.56-2.56-2.56l-115.2 69.12zM376.32 0l-20.48-10.24-69.12 115.2c0 0 2.56 0 2.56 2.56 23.040 15.36 46.080 30.72 66.56 46.080l20.48-153.6zM824.32 12.8h-15.36l-125.44 238.080c0 2.56-2.56 5.12-5.12 5.12l-102.4 102.4 148.48 148.48 99.84-494.080zM394.24 245.76c-43.52-43.52-192-148.48-232.96-151.040 2.56 40.96 107.52 189.44 151.040 232.96l519.68 524.8c30.72 30.72 102.4 61.44 130.56 61.44 5.12 0 10.24 0 10.24-2.56 15.36-15.36-23.040-107.52-58.88-140.8l-519.68-524.8z" />
<glyph unicode="&#xe938;" glyph-name="vrijetijd" d="M378.88 755.2v0 0l15.36-15.36c5.12-5.12 7.68-10.24 7.68-17.92 0-15.36-10.24-25.6-20.48-30.72-5.12-5.12-7.68-10.24-10.24-17.92 0-7.68 2.56-12.8 7.68-17.92s12.8-7.68 20.48-7.68c5.12 0 12.8 2.56 17.92 5.12v0c25.6 23.040 38.4 46.080 38.4 71.68 0 20.48-5.12 35.84-17.92 51.2l-17.92 17.92c-7.68 2.56-10.24 10.24-10.24 17.92 0 15.36 10.24 25.6 20.48 30.72 5.12 5.12 7.68 10.24 10.24 17.92 0 7.68-2.56 12.8-5.12 17.92-5.12 5.12-10.24 7.68-17.92 10.24-7.68 0-12.8-2.56-17.92-5.12-28.16-25.6-40.96-48.64-40.96-74.24-2.56-17.92 5.12-38.4 20.48-53.76v0zM532.48 783.36c0-2.56 2.56-2.56 5.12-5.12 17.92-30.72 12.8-64-12.8-94.72-5.12-5.12-7.68-12.8-5.12-17.92 0-7.68 2.56-12.8 10.24-17.92 5.12-2.56 10.24-5.12 17.92-5.12 5.12 0 15.36 2.56 20.48 10.24 38.4 46.080 46.080 102.4 17.92 148.48 0 2.56-2.56 2.56-2.56 5.12-2.56 7.68-7.68 15.36-12.8 20.48-17.92 30.72-12.8 64 12.8 94.72 10.24 12.8 7.68 28.16-2.56 35.84-12.8 10.24-28.16 7.68-35.84-2.56-38.4-46.080-43.52-102.4-17.92-151.040-2.56-10.24 0-15.36 5.12-20.48zM688.64 737.28c5.12-5.12 7.68-10.24 7.68-17.92 0-15.36-10.24-25.6-20.48-30.72-5.12-5.12-10.24-10.24-10.24-17.92s2.56-12.8 7.68-17.92c5.12-5.12 12.8-7.68 20.48-7.68 5.12 0 12.8 2.56 17.92 5.12v0c25.6 23.040 38.4 46.080 38.4 71.68 0 20.48-5.12 35.84-17.92 51.2l-17.92 17.92c-5.12 5.12-7.68 10.24-7.68 17.92 0 15.36 10.24 25.6 20.48 30.72 5.12 5.12 7.68 10.24 10.24 17.92 0 7.68-2.56 12.8-5.12 17.92-10.24 7.68-15.36 10.24-23.040 10.24s-12.8-2.56-17.92-5.12c-25.6-23.040-38.4-46.080-38.4-71.68 0-20.48 5.12-38.4 17.92-53.76l17.92-17.92zM778.24 151.040c-5.12 0-10.24 0-12.8-2.56l-40.96 110.080-2.56-2.56c-10.24-7.68-23.040-12.8-40.96-17.92h-2.56l38.4-107.52c-17.92-15.36-33.28-33.28-40.96-53.76h-304.64l58.88 158.72h-2.56c-2.56 0-5.12 2.56-7.68 2.56-10.24 5.12-23.040 7.68-33.28 15.36l-2.56 2.56-107.52-284.16c-2.56-5.12-2.56-12.8 0-17.92s7.68-10.24 12.8-12.8h2.56c0 0 2.56 0 2.56 0 2.56 0 2.56-2.56 5.12-2.56 12.8 0 20.48 7.68 23.040 17.92l28.16 71.68h322.56c10.24-51.2 53.76-89.6 104.96-89.6 58.88 0 107.52 48.64 107.52 107.52 0 56.32-48.64 104.96-107.52 104.96zM834.56 43.52c0-28.16-25.6-53.76-53.76-53.76s-53.76 25.6-53.76 53.76c0 28.16 25.6 53.76 53.76 53.76s53.76-25.6 53.76-53.76zM414.72 394.24c7.68 0 15.36 2.56 17.92 10.24 10.24 12.8 7.68 28.16-2.56 35.84-17.92 17.92-33.28 40.96-43.52 64-2.56 5.12-7.68 10.24-12.8 12.8-7.68 2.56-12.8 2.56-17.92 0s-10.24-5.12-15.36-10.24c-2.56-5.12-2.56-15.36 0-23.040v0c15.36-35.84 33.28-61.44 58.88-84.48 2.56-5.12 10.24-5.12 15.36-5.12zM880.64 611.84h-657.92c-15.36 0-25.6-12.8-25.6-25.6s12.8-25.6 25.6-25.6h5.12c0-7.68 0-15.36 2.56-25.6h-74.24c-15.36 0-25.6-12.8-25.6-25.6s12.8-25.6 25.6-25.6h87.040c38.4-140.8 166.4-240.64 312.32-240.64 176.64 0 320 140.8 322.56 314.88h5.12c15.36 0 25.6 12.8 25.6 28.16-5.12 15.36-15.36 25.6-28.16 25.6zM821.76 563.2c-5.12-145.92-125.44-263.68-271.36-263.68s-266.24 117.76-271.36 263.68h542.72z" />
<glyph unicode="&#xe939;" glyph-name="wellness" d="M1016.32 412.16c-17.92 12.8-35.84 23.040-61.44 33.28-17.92 7.68-38.4 12.8-61.44 17.92 5.12 40.96 7.68 81.92 2.56 117.76-5.12 43.52-20.48 87.040-40.96 120.32l-7.68 12.8h-12.8c-30.72-2.56-66.56-10.24-97.28-25.6-23.040-10.24-43.52-20.48-66.56-35.84-35.84 69.12-87.040 120.32-145.92 158.72l-12.8 5.12-12.8-7.68c-58.88-33.28-107.52-89.6-145.92-158.72-20.48 15.36-43.52 25.6-66.56 35.84-30.72 12.8-66.56 23.040-97.28 25.6h-10.24l-7.68-12.8c-20.48-33.28-33.28-76.8-40.96-120.32-5.12-38.4-5.12-79.36 2.56-117.76-20.48-5.12-40.96-10.24-61.44-17.92-20.48-5.12-43.52-20.48-61.44-33.28l-10.24-7.68 2.56-12.8c5.12-30.72 15.36-61.44 28.16-92.16 30.72-61.44 76.8-112.64 128-148.48 58.88-38.4 122.88-53.76 186.88-40.96 15.36 2.56 30.72 7.68 43.52 12.8 33.28-25.6 76.8-35.84 120.32-35.84 48.64 0 87.040 12.8 120.32 35.84 15.36-5.12 28.16-10.24 43.52-12.8 64-10.24 125.44 2.56 186.88 40.96 53.76 33.28 97.28 87.040 125.44 148.48 12.8 28.16 23.040 61.44 28.16 92.16l2.56 12.8v10.24zM304.64 514.56c-17.92-71.68-20.48-145.92-10.24-209.92 2.56-23.040 10.24-48.64 15.36-66.56 0 0-2.56 0-2.56 2.56-40.96 25.6-79.36 74.24-104.96 135.68-25.6 66.56-33.28 133.12-25.6 199.68 5.12 33.28 12.8 64 25.6 89.6 23.040-2.56 48.64-10.24 69.12-20.48s40.96-20.48 64-35.84c-12.8-28.16-23.040-58.88-30.72-94.72zM355.84 158.72c-5.12-2.56-10.24-2.56-15.36-2.56-51.2-10.24-102.4 2.56-153.6 33.28-43.52 28.16-84.48 76.8-110.080 128-10.24 20.48-17.92 40.96-23.040 66.56 10.24 7.68 23.040 12.8 35.84 17.92 15.36 5.12 33.28 10.24 53.76 15.36 5.12-17.92 10.24-38.4 17.92-58.88 28.16-74.24 74.24-128 122.88-161.28 17.92-10.24 35.84-17.92 58.88-20.48 2.56-5.12 7.68-10.24 12.8-17.92zM588.8 151.040c0 2.56 2.56 5.12 2.56 7.68 12.8 30.72 28.16 89.6 28.16 184.32 0 2.56 0 5.12 0 12.8v2.56h-48.64v-2.56c0 0 0-5.12 0-12.8 0-87.040-12.8-135.68-25.6-166.4-7.68-20.48-23.040-43.52-35.84-43.52v0c-7.68 0-12.8 2.56-20.48 10.24-35.84 38.4-40.96 176.64-40.96 212.48v2.56h-48.64v-2.56c-2.56-84.48 10.24-158.72 35.84-207.36-12.8 5.12-23.040 15.36-33.28 23.040-33.28 30.72-56.32 79.36-66.56 138.24s-5.12 125.44 10.24 192c25.6 110.080 87.040 204.8 163.84 258.56 76.8-53.76 135.68-148.48 163.84-258.56 15.36-66.56 20.48-133.12 10.24-192-10.24-61.44-30.72-107.52-66.56-138.24-2.56-7.68-15.36-15.36-28.16-20.48zM686.080 179.2c17.92 2.56 38.4 10.24 58.88 20.48 51.2 30.72 94.72 87.040 122.88 161.28 7.68 17.92 12.8 35.84 17.92 58.88 17.92-2.56 33.28-7.68 53.76-15.36 12.8-5.12 25.6-10.24 35.84-17.92-5.12-20.48-12.8-43.52-23.040-66.56-25.6-53.76-66.56-99.84-110.080-128-48.64-30.72-102.4-43.52-153.6-33.28-5.12 0-10.24 2.56-15.36 2.56 5.12 5.12 10.24 10.24 12.8 17.92zM826.88 376.32c-25.6-64-64-110.080-104.96-135.68 0 0-2.56 0-2.56-2.56 7.68 20.48 12.8 40.96 15.36 66.56 10.24 66.56 7.68 138.24-10.24 209.92-7.68 30.72-17.92 61.44-33.28 92.16 20.48 15.36 40.96 25.6 64 35.84s43.52 15.36 69.12 20.48c12.8-25.6 23.040-58.88 25.6-89.6 10.24-61.44 0-130.56-23.040-197.12z" />
<glyph unicode="&#xe93a;" glyph-name="wereldsteden" d="M1000.96 256h-51.2v163.84c0 12.8-10.24 23.040-23.040 23.040h-43.52v53.76c0 12.8-10.24 23.040-23.040 23.040h-76.8c-12.8 0-23.040-10.24-23.040-23.040v-207.36h-17.92v99.84c0 12.8-10.24 23.040-23.040 23.040h-53.76v87.040c0 10.24-7.68 20.48-15.36 23.040l-87.040 28.16c0 0-2.56 0-2.56 0 28.16 17.92 46.080 46.080 46.080 81.92 0 20.48-7.68 40.96-17.92 56.32l48.64 66.56c5.12 7.68 5.12 17.92 0 25.6s-15.36 12.8-23.040 10.24l-51.2-7.68-28.16 79.36c-2.56 12.8-12.8 20.48-23.040 20.48s-20.48-7.68-23.040-15.36l-28.16-81.92-51.2 7.68c-10.24 0-17.92-2.56-23.040-10.24s-5.12-17.92 0-25.6l48.64-69.12c-12.8-15.36-17.92-35.84-17.92-56.32 0-35.84 17.92-64 46.080-81.92 0 0-2.56 0-2.56 0l-81.92-28.16c-10.24-2.56-15.36-12.8-15.36-23.040v-84.48h-69.12v35.84c0 12.8-10.24 23.040-23.040 23.040h-48.64v66.56c0 12.8-10.24 23.040-23.040 23.040h-74.24c-12.8 0-23.040-10.24-23.040-23.040v-304.64h-76.8c-12.8 0-23.040-10.24-23.040-23.040s10.24-23.040 23.040-23.040h102.4c12.8 0 23.040 10.24 23.040 23.040v304.64h25.6v-66.56c0-12.8 10.24-23.040 23.040-23.040h43.52v-35.84c0-12.8 10.24-23.040 23.040-23.040h92.16v-227.84h-33.28c-12.8 0-23.040-10.24-23.040-23.040v-76.8c0-12.8 10.24-23.040 23.040-23.040h368.64c12.8 0 23.040 10.24 23.040 23.040v76.8c0 12.8-10.24 23.040-23.040 23.040h-33.28v225.28h30.72v-99.84c0-12.8 10.24-23.040 23.040-23.040h58.88c12.8 0 23.040 10.24 23.040 23.040v207.36h30.72v-53.76c0-12.8 10.24-23.040 23.040-23.040h46.080v-163.84c0-12.8 10.24-23.040 23.040-23.040h76.8c12.8 0 23.040 10.24 23.040 23.040 5.12 10.24-5.12 23.040-17.92 23.040zM350.72 64v28.16h322.56v-28.16h-322.56zM614.4 140.8h-204.8v340.48l46.080 15.36 35.84-64c7.68-15.36 33.28-15.36 43.52 0l35.84 64 46.080-15.36-2.56-340.48zM535.040 537.6l-23.040-43.52-23.040 43.52c0 0 0 0 0 2.56 15.36-5.12 30.72-5.12 46.080-2.56 0 0 0 0 0 0zM550.4 719.36c-25.6 10.24-53.76 10.24-79.36 0l-15.36 20.48 15.36-2.56c10.24-2.56 23.040 5.12 25.6 15.36l15.36 33.28 12.8-33.28c2.56-10.24 15.36-17.92 25.6-15.36l15.36 2.56-15.36-20.48zM512 678.4c25.6 0 48.64-20.48 48.64-48.64 0-25.6-20.48-46.080-48.64-46.080-25.6 0-48.64 20.48-48.64 46.080 0 28.16 23.040 48.64 48.64 48.64z" />
<glyph unicode="&#xe93b;" glyph-name="whatsapp" d="M688.64 453.12c-10.24 10.24-23.040 15.36-38.4 15.36 0 0 0 0 0 0-15.36 0-28.16-5.12-38.4-15.36l-28.16-30.72c-5.12-5.12-10.24-5.12-15.36-5.12-10.24 0-30.72 7.68-64 40.96s-38.4 53.76-40.96 64c0 5.12 2.56 10.24 5.12 15.36l30.72 28.16c10.24 10.24 15.36 23.040 15.36 38.4s-5.12 28.16-15.36 38.4l-87.040 87.040c-20.48 20.48-53.76 20.48-74.24 0-46.080-43.52-69.12-94.72-66.56-151.040 2.56-120.32 110.080-222.72 122.88-232.96 10.24-12.8 112.64-120.32 235.52-122.88h2.56c56.32 0 104.96 23.040 148.48 66.56 20.48 20.48 20.48 53.76 0 74.24l-92.16 89.6zM627.2 284.16c-97.28 2.56-189.44 102.4-192 102.4v2.56c0 0-102.4 92.16-102.4 189.44 0 35.84 12.8 71.68 43.52 102.4l79.36-79.36-23.040-23.040c-17.92-17.92-28.16-43.52-23.040-66.56 5.12-30.72 23.040-64 56.32-99.84 33.28-33.28 66.56-53.76 99.84-56.32 25.6-2.56 48.64 5.12 66.56 23.040l23.040 23.040 79.36-79.36c-35.84-25.6-71.68-38.4-107.52-38.4zM522.24 960c-256 0-463.36-207.36-463.36-463.36 0-87.040 25.6-174.080 71.68-248.32l-89.6-235.52c-7.68-23.040-2.56-46.080 15.36-61.44 10.24-10.24 25.6-15.36 38.4-15.36 7.68 0 17.92 2.56 25.6 5.12l243.2 117.76c51.2-17.92 102.4-28.16 156.16-28.16 256 0 463.36 207.36 463.36 463.36s-207.36 465.92-460.8 465.92zM522.24 94.72c-51.2 0-99.84 10.24-145.92 28.16-5.12 2.56-12.8 2.56-17.92 2.56s-7.68 0-12.8-2.56l-243.2-120.32 89.6 240.64 2.56 5.12c0 0 0 2.56 0 2.56v2.56c0 0 0 2.56 0 2.56h-12.8c0 0 0 0 0 0l12.8 2.56c0 0 0 2.56 0 2.56v2.56c0 2.56-2.56 2.56-2.56 5.12-46.080 66.56-69.12 145.92-69.12 225.28 0 222.72 179.2 401.92 401.92 401.92s401.92-179.2 401.92-401.92-184.32-399.36-404.48-399.36z" />
</font>
</defs>
</svg>
